<?xml version="1.0" encoding="utf-8"?><!-- Uploaded to: SVG Repo, www.svgrepo.com, Generator: SVG Repo Mixer Tools -->
<svg fill="#000000" width="800px" height="800px" viewBox="0 0 24 24" id="time-management-time-9-o-clock" data-name="Flat Color" xmlns="http://www.w3.org/2000/svg" class="icon flat-color"><circle id="secondary" cx="8" cy="12" r="6" style="fill: rgb(44, 169, 188);"></circle><path id="primary" d="M5,12a1,1,0,0,1,1-1H7V9A1,1,0,0,1,9,9v3a1,1,0,0,1-1,1H6A1,1,0,0,1,5,12Zm2,6.92V20a2,2,0,0,0,2,2H20a2,2,0,0,0,2-2V4a2,2,0,0,0-2-2H9A2,2,0,0,0,7,4V5.08A6.63,6.63,0,0,1,8,5,7,7,0,0,1,8,19,6.63,6.63,0,0,1,7,18.92Z" style="fill: rgb(0, 0, 0);"></path></svg>