<svg xmlns="http://www.w3.org/2000/svg" xmlns:xlink="http://www.w3.org/1999/xlink" width="215" zoomAndPan="magnify" viewBox="0 0 161.25 64.499998" height="86" preserveAspectRatio="xMidYMid meet" version="1.0"><defs><g/><clipPath id="86fa754694"><path d="M 0.25 16 L 10 16 L 10 43 L 0.25 43 Z M 0.25 16 " clip-rule="nonzero"/></clipPath></defs><g fill="#00a8fa" fill-opacity="0.302"><g transform="translate(2.731811, 45.652735)"><g><path d="M 3.363281 0.03125 L 7.375 0.03125 C 8.734375 0.03125 9.703125 -1.066406 9.703125 -2.296875 L 9.703125 -23.546875 C 9.703125 -24.90625 8.734375 -25.875 7.375 -25.875 L 3.363281 -25.875 C 2.101562 -25.875 1.066406 -24.90625 1.066406 -23.546875 L 1.066406 -2.296875 C 1.066406 -1.066406 2.101562 0.03125 3.363281 0.03125 Z M 3.363281 0.03125 "/></g></g></g><g fill="#00a8fa" fill-opacity="0.302"><g transform="translate(13.500774, 45.652735)"><g><path d="M 19.117188 -21.898438 C 18.402344 -24.226562 16.269531 -25.8125 13.84375 -25.8125 L 3.589844 -25.8125 C 2.199219 -25.8125 1.066406 -24.644531 1.066406 -23.253906 L 1.066406 -2.621094 C 1.066406 -1.195312 2.199219 -0.0664062 3.589844 -0.0664062 L 6.953125 -0.0664062 C 8.34375 -0.0664062 9.476562 -1.195312 9.476562 -2.621094 L 9.476562 -8.539062 L 13.972656 -8.539062 C 15.332031 -8.539062 16.625 -9.121094 17.5 -10.15625 C 18.566406 -11.449219 19.664062 -13.679688 19.664062 -17.402344 C 19.664062 -19.277344 19.4375 -20.796875 19.117188 -21.898438 Z M 12.421875 -17.464844 L 12.421875 -17.011719 C 12.421875 -15.914062 11.578125 -15.074219 10.511719 -15.074219 L 9.898438 -15.074219 C 9.636719 -15.074219 9.476562 -15.234375 9.476562 -15.460938 L 9.476562 -18.953125 C 9.476562 -19.179688 9.636719 -19.40625 9.898438 -19.40625 L 10.511719 -19.40625 C 11.578125 -19.40625 12.421875 -18.5 12.421875 -17.464844 Z M 12.421875 -17.464844 "/></g></g></g><g fill="#00a8fa" fill-opacity="0.302"><g transform="translate(33.712788, 45.652735)"><g><path d="M 21.671875 -25.875 L 3.332031 -25.875 C 2.101562 -25.875 1.066406 -24.871094 1.066406 -23.609375 L 1.066406 -19.179688 C 1.066406 -17.949219 2.101562 -16.917969 3.332031 -16.917969 L 7.796875 -16.917969 C 7.925781 -16.917969 8.019531 -16.785156 8.019531 -16.691406 L 8.019531 -2.199219 C 8.019531 -0.96875 9.023438 0.0664062 10.316406 0.0664062 L 14.714844 0.0664062 C 15.945312 0.0664062 16.980469 -0.96875 16.980469 -2.199219 L 16.980469 -16.691406 C 16.980469 -16.785156 17.109375 -16.917969 17.238281 -16.917969 L 21.671875 -16.917969 C 22.898438 -16.917969 23.933594 -17.949219 23.933594 -19.179688 L 23.933594 -23.609375 C 23.933594 -24.871094 22.898438 -25.875 21.671875 -25.875 Z M 21.671875 -25.875 "/></g></g></g><g fill="#00a8fa" fill-opacity="0.302"><g transform="translate(58.711007, 45.652735)"><g><path d="M 7.988281 -1.421875 C 8.410156 -0.613281 9.21875 0 9.996094 0 L 14.976562 0 C 15.976562 0 16.753906 -0.613281 17.175781 -1.421875 L 24.550781 -23.125 C 24.550781 -23.125 24.839844 -24.0625 24.355469 -24.9375 C 23.96875 -25.746094 23.351562 -25.90625 22.542969 -25.90625 L 18.175781 -25.90625 C 16.980469 -25.90625 16.558594 -25.132812 15.976562 -23.742188 L 12.96875 -15.558594 C 12.96875 -15.558594 12.90625 -15.300781 12.582031 -15.300781 C 12.257812 -15.300781 12.195312 -15.558594 12.195312 -15.558594 L 9.21875 -23.742188 C 8.605469 -25.132812 8.214844 -25.90625 6.988281 -25.90625 L 2.425781 -25.90625 C 1.8125 -25.90625 1.195312 -25.746094 0.808594 -24.9375 C 0.355469 -24.0625 0.613281 -23.125 0.613281 -23.125 Z M 7.988281 -1.421875 "/></g></g></g><g fill="#00a8fa" fill-opacity="0.302"><g transform="translate(83.903255, 45.652735)"><g/></g></g><g fill="#00a8fa" fill-opacity="0.302"><g transform="translate(94.898589, 45.652735)"><g><path d="M 16.042969 -8.734375 L 9.734375 -8.734375 L 9.734375 -23.253906 C 9.734375 -24.644531 8.507812 -25.875 7.179688 -25.875 L 3.429688 -25.875 C 2.039062 -25.875 1.066406 -24.644531 1.066406 -23.253906 L 1.066406 -2.132812 C 1.066406 -0.96875 1.8125 0 3.203125 0 L 16.042969 0 C 17.238281 0 18.210938 -0.96875 18.210938 -2.132812 L 18.210938 -6.46875 C 18.210938 -7.664062 17.238281 -8.734375 16.042969 -8.734375 Z M 16.042969 -8.734375 "/></g></g></g><g fill="#00a8fa" fill-opacity="0.302"><g transform="translate(114.172764, 45.652735)"><g><path d="M 24.679688 -2.71875 L 19.179688 -23.644531 C 19.082031 -24.03125 18.984375 -24.613281 18.535156 -25.132812 C 18.046875 -25.617188 17.433594 -25.746094 16.980469 -25.746094 L 8.507812 -25.746094 C 8.019531 -25.746094 7.570312 -25.585938 7.246094 -25.324219 C 6.921875 -25.097656 6.566406 -24.710938 6.4375 -24.128906 L 0.613281 -2.75 C 0.355469 -1.714844 0.839844 -0.613281 1.8125 -0.195312 C 2.070312 -0.0664062 2.328125 -0.03125 2.652344 -0.03125 L 7.050781 -0.03125 C 8.246094 -0.03125 8.734375 -0.777344 9.21875 -2.003906 L 10.15625 -4.527344 L 15.105469 -4.527344 L 16.074219 -2.003906 C 16.558594 -0.777344 17.046875 0 18.242188 0 L 22.640625 0 C 22.996094 0 23.351562 -0.0976562 23.609375 -0.257812 C 24.484375 -0.710938 24.90625 -1.746094 24.679688 -2.71875 Z M 14.167969 -12 L 11.160156 -12 C 10.835938 -12 10.578125 -12.289062 10.738281 -12.613281 L 11.578125 -14.8125 L 12.226562 -16.496094 C 12.355469 -16.917969 12.9375 -16.917969 13.066406 -16.496094 L 13.746094 -14.8125 L 14.585938 -12.613281 C 14.683594 -12.289062 14.457031 -12 14.167969 -12 Z M 14.167969 -12 "/></g></g></g><g fill="#00a8fa" fill-opacity="0.302"><g transform="translate(139.462038, 45.652735)"><g><path d="M 17.917969 -12.9375 C 18.210938 -13.230469 20.28125 -14.847656 20.28125 -19.019531 C 20.28125 -20.667969 19.730469 -22.382812 18.695312 -23.578125 C 17.5625 -24.90625 16.074219 -25.777344 13.972656 -25.777344 L 3.363281 -25.777344 C 2.425781 -25.777344 1.875 -25.292969 1.457031 -24.742188 C 1.035156 -24.160156 1.066406 -23.546875 1.066406 -23.546875 L 1.066406 -2.296875 C 1.066406 -2.167969 1.066406 -1.519531 1.585938 -0.9375 C 1.8125 -0.648438 2.359375 -0.0976562 3.363281 -0.0976562 L 7.472656 -0.0976562 L 14.070312 -0.0664062 C 15.882812 -0.0664062 17.464844 -0.9375 18.597656 -2.230469 C 19.632812 -3.429688 20.3125 -5.402344 20.3125 -6.824219 C 20.410156 -10.445312 18.46875 -12.484375 17.917969 -12.9375 Z M 12.582031 -19.117188 L 12.582031 -18.695312 C 12.582031 -17.984375 12.03125 -17.433594 11.289062 -17.433594 L 9.347656 -17.433594 C 9.121094 -17.433594 8.992188 -17.5625 8.992188 -17.757812 L 8.992188 -20.019531 C 8.992188 -20.214844 9.121094 -20.375 9.347656 -20.375 L 11.289062 -20.375 C 12.03125 -20.375 12.582031 -19.792969 12.582031 -19.117188 Z M 12.582031 -8.28125 L 12.582031 -7.34375 C 12.582031 -6.628906 12.03125 -6.046875 11.289062 -6.046875 L 9.347656 -6.046875 C 9.121094 -6.046875 8.992188 -6.242188 8.992188 -6.402344 L 8.992188 -9.25 C 8.992188 -9.445312 9.121094 -9.574219 9.347656 -9.574219 L 11.289062 -9.574219 C 12.03125 -9.574219 12.582031 -9.023438 12.582031 -8.28125 Z M 12.582031 -8.28125 "/></g></g></g><g fill="#00a8fa" fill-opacity="0.502"><g transform="translate(1.302078, 44.223)"><g><path d="M 3.363281 0.03125 L 7.375 0.03125 C 8.734375 0.03125 9.703125 -1.066406 9.703125 -2.296875 L 9.703125 -23.546875 C 9.703125 -24.90625 8.734375 -25.875 7.375 -25.875 L 3.363281 -25.875 C 2.101562 -25.875 1.066406 -24.90625 1.066406 -23.546875 L 1.066406 -2.296875 C 1.066406 -1.066406 2.101562 0.03125 3.363281 0.03125 Z M 3.363281 0.03125 "/></g></g></g><g fill="#00a8fa" fill-opacity="0.502"><g transform="translate(12.071041, 44.223)"><g><path d="M 19.117188 -21.898438 C 18.402344 -24.226562 16.269531 -25.8125 13.84375 -25.8125 L 3.589844 -25.8125 C 2.199219 -25.8125 1.066406 -24.644531 1.066406 -23.253906 L 1.066406 -2.621094 C 1.066406 -1.195312 2.199219 -0.0664062 3.589844 -0.0664062 L 6.953125 -0.0664062 C 8.34375 -0.0664062 9.476562 -1.195312 9.476562 -2.621094 L 9.476562 -8.539062 L 13.972656 -8.539062 C 15.332031 -8.539062 16.625 -9.121094 17.5 -10.15625 C 18.566406 -11.449219 19.664062 -13.679688 19.664062 -17.402344 C 19.664062 -19.277344 19.4375 -20.796875 19.117188 -21.898438 Z M 12.421875 -17.464844 L 12.421875 -17.011719 C 12.421875 -15.914062 11.578125 -15.074219 10.511719 -15.074219 L 9.898438 -15.074219 C 9.636719 -15.074219 9.476562 -15.234375 9.476562 -15.460938 L 9.476562 -18.953125 C 9.476562 -19.179688 9.636719 -19.40625 9.898438 -19.40625 L 10.511719 -19.40625 C 11.578125 -19.40625 12.421875 -18.5 12.421875 -17.464844 Z M 12.421875 -17.464844 "/></g></g></g><g fill="#00a8fa" fill-opacity="0.502"><g transform="translate(32.283055, 44.223)"><g><path d="M 21.671875 -25.875 L 3.332031 -25.875 C 2.101562 -25.875 1.066406 -24.871094 1.066406 -23.609375 L 1.066406 -19.179688 C 1.066406 -17.949219 2.101562 -16.917969 3.332031 -16.917969 L 7.796875 -16.917969 C 7.925781 -16.917969 8.019531 -16.785156 8.019531 -16.691406 L 8.019531 -2.199219 C 8.019531 -0.96875 9.023438 0.0664062 10.316406 0.0664062 L 14.714844 0.0664062 C 15.945312 0.0664062 16.980469 -0.96875 16.980469 -2.199219 L 16.980469 -16.691406 C 16.980469 -16.785156 17.109375 -16.917969 17.238281 -16.917969 L 21.671875 -16.917969 C 22.898438 -16.917969 23.933594 -17.949219 23.933594 -19.179688 L 23.933594 -23.609375 C 23.933594 -24.871094 22.898438 -25.875 21.671875 -25.875 Z M 21.671875 -25.875 "/></g></g></g><g fill="#00a8fa" fill-opacity="0.502"><g transform="translate(57.281273, 44.223)"><g><path d="M 7.988281 -1.421875 C 8.410156 -0.613281 9.21875 0 9.996094 0 L 14.976562 0 C 15.976562 0 16.753906 -0.613281 17.175781 -1.421875 L 24.550781 -23.125 C 24.550781 -23.125 24.839844 -24.0625 24.355469 -24.9375 C 23.96875 -25.746094 23.351562 -25.90625 22.542969 -25.90625 L 18.175781 -25.90625 C 16.980469 -25.90625 16.558594 -25.132812 15.976562 -23.742188 L 12.96875 -15.558594 C 12.96875 -15.558594 12.90625 -15.300781 12.582031 -15.300781 C 12.257812 -15.300781 12.195312 -15.558594 12.195312 -15.558594 L 9.21875 -23.742188 C 8.605469 -25.132812 8.214844 -25.90625 6.988281 -25.90625 L 2.425781 -25.90625 C 1.8125 -25.90625 1.195312 -25.746094 0.808594 -24.9375 C 0.355469 -24.0625 0.613281 -23.125 0.613281 -23.125 Z M 7.988281 -1.421875 "/></g></g></g><g fill="#00a8fa" fill-opacity="0.502"><g transform="translate(82.473522, 44.223)"><g/></g></g><g fill="#00a8fa" fill-opacity="0.502"><g transform="translate(93.468856, 44.223)"><g><path d="M 16.042969 -8.734375 L 9.734375 -8.734375 L 9.734375 -23.253906 C 9.734375 -24.644531 8.507812 -25.875 7.179688 -25.875 L 3.429688 -25.875 C 2.039062 -25.875 1.066406 -24.644531 1.066406 -23.253906 L 1.066406 -2.132812 C 1.066406 -0.96875 1.8125 0 3.203125 0 L 16.042969 0 C 17.238281 0 18.210938 -0.96875 18.210938 -2.132812 L 18.210938 -6.46875 C 18.210938 -7.664062 17.238281 -8.734375 16.042969 -8.734375 Z M 16.042969 -8.734375 "/></g></g></g><g fill="#00a8fa" fill-opacity="0.502"><g transform="translate(112.74303, 44.223)"><g><path d="M 24.679688 -2.71875 L 19.179688 -23.644531 C 19.082031 -24.03125 18.984375 -24.613281 18.535156 -25.132812 C 18.046875 -25.617188 17.433594 -25.746094 16.980469 -25.746094 L 8.507812 -25.746094 C 8.019531 -25.746094 7.570312 -25.585938 7.246094 -25.324219 C 6.921875 -25.097656 6.566406 -24.710938 6.4375 -24.128906 L 0.613281 -2.75 C 0.355469 -1.714844 0.839844 -0.613281 1.8125 -0.195312 C 2.070312 -0.0664062 2.328125 -0.03125 2.652344 -0.03125 L 7.050781 -0.03125 C 8.246094 -0.03125 8.734375 -0.777344 9.21875 -2.003906 L 10.15625 -4.527344 L 15.105469 -4.527344 L 16.074219 -2.003906 C 16.558594 -0.777344 17.046875 0 18.242188 0 L 22.640625 0 C 22.996094 0 23.351562 -0.0976562 23.609375 -0.257812 C 24.484375 -0.710938 24.90625 -1.746094 24.679688 -2.71875 Z M 14.167969 -12 L 11.160156 -12 C 10.835938 -12 10.578125 -12.289062 10.738281 -12.613281 L 11.578125 -14.8125 L 12.226562 -16.496094 C 12.355469 -16.917969 12.9375 -16.917969 13.066406 -16.496094 L 13.746094 -14.8125 L 14.585938 -12.613281 C 14.683594 -12.289062 14.457031 -12 14.167969 -12 Z M 14.167969 -12 "/></g></g></g><g fill="#00a8fa" fill-opacity="0.502"><g transform="translate(138.032305, 44.223)"><g><path d="M 17.917969 -12.9375 C 18.210938 -13.230469 20.28125 -14.847656 20.28125 -19.019531 C 20.28125 -20.667969 19.730469 -22.382812 18.695312 -23.578125 C 17.5625 -24.90625 16.074219 -25.777344 13.972656 -25.777344 L 3.363281 -25.777344 C 2.425781 -25.777344 1.875 -25.292969 1.457031 -24.742188 C 1.035156 -24.160156 1.066406 -23.546875 1.066406 -23.546875 L 1.066406 -2.296875 C 1.066406 -2.167969 1.066406 -1.519531 1.585938 -0.9375 C 1.8125 -0.648438 2.359375 -0.0976562 3.363281 -0.0976562 L 7.472656 -0.0976562 L 14.070312 -0.0664062 C 15.882812 -0.0664062 17.464844 -0.9375 18.597656 -2.230469 C 19.632812 -3.429688 20.3125 -5.402344 20.3125 -6.824219 C 20.410156 -10.445312 18.46875 -12.484375 17.917969 -12.9375 Z M 12.582031 -19.117188 L 12.582031 -18.695312 C 12.582031 -17.984375 12.03125 -17.433594 11.289062 -17.433594 L 9.347656 -17.433594 C 9.121094 -17.433594 8.992188 -17.5625 8.992188 -17.757812 L 8.992188 -20.019531 C 8.992188 -20.214844 9.121094 -20.375 9.347656 -20.375 L 11.289062 -20.375 C 12.03125 -20.375 12.582031 -19.792969 12.582031 -19.117188 Z M 12.582031 -8.28125 L 12.582031 -7.34375 C 12.582031 -6.628906 12.03125 -6.046875 11.289062 -6.046875 L 9.347656 -6.046875 C 9.121094 -6.046875 8.992188 -6.242188 8.992188 -6.402344 L 8.992188 -9.25 C 8.992188 -9.445312 9.121094 -9.574219 9.347656 -9.574219 L 11.289062 -9.574219 C 12.03125 -9.574219 12.582031 -9.023438 12.582031 -8.28125 Z M 12.582031 -8.28125 "/></g></g></g><g clip-path="url(#86fa754694)"><g fill="#00a8fa" fill-opacity="1"><g transform="translate(-0.127656, 42.793266)"><g><path d="M 3.363281 0.03125 L 7.375 0.03125 C 8.734375 0.03125 9.703125 -1.066406 9.703125 -2.296875 L 9.703125 -23.546875 C 9.703125 -24.90625 8.734375 -25.875 7.375 -25.875 L 3.363281 -25.875 C 2.101562 -25.875 1.066406 -24.90625 1.066406 -23.546875 L 1.066406 -2.296875 C 1.066406 -1.066406 2.101562 0.03125 3.363281 0.03125 Z M 3.363281 0.03125 "/></g></g></g></g><g fill="#00a8fa" fill-opacity="1"><g transform="translate(10.641306, 42.793266)"><g><path d="M 19.117188 -21.898438 C 18.402344 -24.226562 16.269531 -25.8125 13.84375 -25.8125 L 3.589844 -25.8125 C 2.199219 -25.8125 1.066406 -24.644531 1.066406 -23.253906 L 1.066406 -2.621094 C 1.066406 -1.195312 2.199219 -0.0664062 3.589844 -0.0664062 L 6.953125 -0.0664062 C 8.34375 -0.0664062 9.476562 -1.195312 9.476562 -2.621094 L 9.476562 -8.539062 L 13.972656 -8.539062 C 15.332031 -8.539062 16.625 -9.121094 17.5 -10.15625 C 18.566406 -11.449219 19.664062 -13.679688 19.664062 -17.402344 C 19.664062 -19.277344 19.4375 -20.796875 19.117188 -21.898438 Z M 12.421875 -17.464844 L 12.421875 -17.011719 C 12.421875 -15.914062 11.578125 -15.074219 10.511719 -15.074219 L 9.898438 -15.074219 C 9.636719 -15.074219 9.476562 -15.234375 9.476562 -15.460938 L 9.476562 -18.953125 C 9.476562 -19.179688 9.636719 -19.40625 9.898438 -19.40625 L 10.511719 -19.40625 C 11.578125 -19.40625 12.421875 -18.5 12.421875 -17.464844 Z M 12.421875 -17.464844 "/></g></g></g><g fill="#00a8fa" fill-opacity="1"><g transform="translate(30.85332, 42.793266)"><g><path d="M 21.671875 -25.875 L 3.332031 -25.875 C 2.101562 -25.875 1.066406 -24.871094 1.066406 -23.609375 L 1.066406 -19.179688 C 1.066406 -17.949219 2.101562 -16.917969 3.332031 -16.917969 L 7.796875 -16.917969 C 7.925781 -16.917969 8.019531 -16.785156 8.019531 -16.691406 L 8.019531 -2.199219 C 8.019531 -0.96875 9.023438 0.0664062 10.316406 0.0664062 L 14.714844 0.0664062 C 15.945312 0.0664062 16.980469 -0.96875 16.980469 -2.199219 L 16.980469 -16.691406 C 16.980469 -16.785156 17.109375 -16.917969 17.238281 -16.917969 L 21.671875 -16.917969 C 22.898438 -16.917969 23.933594 -17.949219 23.933594 -19.179688 L 23.933594 -23.609375 C 23.933594 -24.871094 22.898438 -25.875 21.671875 -25.875 Z M 21.671875 -25.875 "/></g></g></g><g fill="#00a8fa" fill-opacity="1"><g transform="translate(55.851539, 42.793266)"><g><path d="M 7.988281 -1.421875 C 8.410156 -0.613281 9.21875 0 9.996094 0 L 14.976562 0 C 15.976562 0 16.753906 -0.613281 17.175781 -1.421875 L 24.550781 -23.125 C 24.550781 -23.125 24.839844 -24.0625 24.355469 -24.9375 C 23.96875 -25.746094 23.351562 -25.90625 22.542969 -25.90625 L 18.175781 -25.90625 C 16.980469 -25.90625 16.558594 -25.132812 15.976562 -23.742188 L 12.96875 -15.558594 C 12.96875 -15.558594 12.90625 -15.300781 12.582031 -15.300781 C 12.257812 -15.300781 12.195312 -15.558594 12.195312 -15.558594 L 9.21875 -23.742188 C 8.605469 -25.132812 8.214844 -25.90625 6.988281 -25.90625 L 2.425781 -25.90625 C 1.8125 -25.90625 1.195312 -25.746094 0.808594 -24.9375 C 0.355469 -24.0625 0.613281 -23.125 0.613281 -23.125 Z M 7.988281 -1.421875 "/></g></g></g><g fill="#00a8fa" fill-opacity="1"><g transform="translate(81.043787, 42.793266)"><g/></g></g><g fill="#00a8fa" fill-opacity="1"><g transform="translate(92.039122, 42.793266)"><g><path d="M 16.042969 -8.734375 L 9.734375 -8.734375 L 9.734375 -23.253906 C 9.734375 -24.644531 8.507812 -25.875 7.179688 -25.875 L 3.429688 -25.875 C 2.039062 -25.875 1.066406 -24.644531 1.066406 -23.253906 L 1.066406 -2.132812 C 1.066406 -0.96875 1.8125 0 3.203125 0 L 16.042969 0 C 17.238281 0 18.210938 -0.96875 18.210938 -2.132812 L 18.210938 -6.46875 C 18.210938 -7.664062 17.238281 -8.734375 16.042969 -8.734375 Z M 16.042969 -8.734375 "/></g></g></g><g fill="#00a8fa" fill-opacity="1"><g transform="translate(111.313296, 42.793266)"><g><path d="M 24.679688 -2.71875 L 19.179688 -23.644531 C 19.082031 -24.03125 18.984375 -24.613281 18.535156 -25.132812 C 18.046875 -25.617188 17.433594 -25.746094 16.980469 -25.746094 L 8.507812 -25.746094 C 8.019531 -25.746094 7.570312 -25.585938 7.246094 -25.324219 C 6.921875 -25.097656 6.566406 -24.710938 6.4375 -24.128906 L 0.613281 -2.75 C 0.355469 -1.714844 0.839844 -0.613281 1.8125 -0.195312 C 2.070312 -0.0664062 2.328125 -0.03125 2.652344 -0.03125 L 7.050781 -0.03125 C 8.246094 -0.03125 8.734375 -0.777344 9.21875 -2.003906 L 10.15625 -4.527344 L 15.105469 -4.527344 L 16.074219 -2.003906 C 16.558594 -0.777344 17.046875 0 18.242188 0 L 22.640625 0 C 22.996094 0 23.351562 -0.0976562 23.609375 -0.257812 C 24.484375 -0.710938 24.90625 -1.746094 24.679688 -2.71875 Z M 14.167969 -12 L 11.160156 -12 C 10.835938 -12 10.578125 -12.289062 10.738281 -12.613281 L 11.578125 -14.8125 L 12.226562 -16.496094 C 12.355469 -16.917969 12.9375 -16.917969 13.066406 -16.496094 L 13.746094 -14.8125 L 14.585938 -12.613281 C 14.683594 -12.289062 14.457031 -12 14.167969 -12 Z M 14.167969 -12 "/></g></g></g><g fill="#00a8fa" fill-opacity="1"><g transform="translate(136.60257, 42.793266)"><g><path d="M 17.917969 -12.9375 C 18.210938 -13.230469 20.28125 -14.847656 20.28125 -19.019531 C 20.28125 -20.667969 19.730469 -22.382812 18.695312 -23.578125 C 17.5625 -24.90625 16.074219 -25.777344 13.972656 -25.777344 L 3.363281 -25.777344 C 2.425781 -25.777344 1.875 -25.292969 1.457031 -24.742188 C 1.035156 -24.160156 1.066406 -23.546875 1.066406 -23.546875 L 1.066406 -2.296875 C 1.066406 -2.167969 1.066406 -1.519531 1.585938 -0.9375 C 1.8125 -0.648438 2.359375 -0.0976562 3.363281 -0.0976562 L 7.472656 -0.0976562 L 14.070312 -0.0664062 C 15.882812 -0.0664062 17.464844 -0.9375 18.597656 -2.230469 C 19.632812 -3.429688 20.3125 -5.402344 20.3125 -6.824219 C 20.410156 -10.445312 18.46875 -12.484375 17.917969 -12.9375 Z M 12.582031 -19.117188 L 12.582031 -18.695312 C 12.582031 -17.984375 12.03125 -17.433594 11.289062 -17.433594 L 9.347656 -17.433594 C 9.121094 -17.433594 8.992188 -17.5625 8.992188 -17.757812 L 8.992188 -20.019531 C 8.992188 -20.214844 9.121094 -20.375 9.347656 -20.375 L 11.289062 -20.375 C 12.03125 -20.375 12.582031 -19.792969 12.582031 -19.117188 Z M 12.582031 -8.28125 L 12.582031 -7.34375 C 12.582031 -6.628906 12.03125 -6.046875 11.289062 -6.046875 L 9.347656 -6.046875 C 9.121094 -6.046875 8.992188 -6.242188 8.992188 -6.402344 L 8.992188 -9.25 C 8.992188 -9.445312 9.121094 -9.574219 9.347656 -9.574219 L 11.289062 -9.574219 C 12.03125 -9.574219 12.582031 -9.023438 12.582031 -8.28125 Z M 12.582031 -8.28125 "/></g></g></g></svg>