<svg xmlns="http://www.w3.org/2000/svg" xmlns:xlink="http://www.w3.org/1999/xlink" viewBox="0 0 1463.9 1043.89"><defs><style>.cls-1,.cls-127,.cls-138,.cls-17{fill:none;}.cls-10,.cls-129,.cls-13,.cls-2,.cls-22,.cls-23,.cls-232,.cls-233,.cls-9{fill:#fff;}.cls-2{opacity:0.1;}.cls-3,.cls-4,.cls-5,.cls-6,.cls-7,.cls-8,.cls-9{opacity:0.35;}.cls-3{fill:url(#linear-gradient);}.cls-4{fill:url(#linear-gradient-2);}.cls-5{fill:url(#linear-gradient-3);}.cls-6{fill:url(#linear-gradient-4);}.cls-7{fill:url(#linear-gradient-5);}.cls-8{fill:url(#linear-gradient-6);}.cls-11{fill:#d1cce7;}.cls-12{fill:#203c8a;}.cls-13{opacity:0.5;}.cls-14{fill:url(#linear-gradient-7);}.cls-15{fill:url(#linear-gradient-8);}.cls-16{fill:url(#linear-gradient-9);}.cls-138,.cls-17{stroke:#fff;}.cls-127,.cls-138,.cls-17{stroke-miterlimit:10;stroke-width:2px;}.cls-18{fill:url(#linear-gradient-10);}.cls-19{fill:url(#linear-gradient-11);}.cls-20{fill:url(#linear-gradient-12);}.cls-21{fill:url(#linear-gradient-13);}.cls-22{opacity:0.42;}.cls-23{opacity:0.8;}.cls-24{clip-path:url(#clip-path);}.cls-25{fill:#5b59a4;}.cls-26{clip-path:url(#clip-path-2);}.cls-27{clip-path:url(#clip-path-3);}.cls-28{clip-path:url(#clip-path-4);}.cls-29{fill:url(#linear-gradient-14);}.cls-30{fill:url(#linear-gradient-15);}.cls-31{fill:#54536d;}.cls-32{fill:#54546e;}.cls-33{fill:#55546e;}.cls-34{fill:#55556f;}.cls-35{fill:#565570;}.cls-36{fill:#575671;}.cls-37{fill:#575772;}.cls-38{fill:#585773;}.cls-39{fill:#595873;}.cls-40{fill:#595874;}.cls-41{fill:#5a5975;}.cls-42{fill:#5b5976;}.cls-43{fill:#5b5a77;}.cls-44{fill:#5c5a78;}.cls-45{fill:#5d5b78;}.cls-46{fill:#5d5b79;}.cls-47{fill:#5e5c7a;}.cls-48{fill:#5f5d7b;}.cls-49{fill:#5f5d7c;}.cls-50{fill:#605e7d;}.cls-51{fill:#615e7d;}.cls-52{fill:#615f7e;}.cls-53{fill:#625f7f;}.cls-54{fill:#636080;}.cls-55{fill:#636081;}.cls-56{fill:#646182;}.cls-57{fill:#656283;}.cls-58{fill:#666384;}.cls-59{fill:#666385;}.cls-60{fill:#676486;}.cls-61{fill:#686587;}.cls-62{fill:#686588;}.cls-63{fill:#696689;}.cls-64{fill:#6a668a;}.cls-65{fill:#6b678b;}.cls-66{fill:#6c688c;}.cls-67{fill:#6d698d;}.cls-68{fill:#6d698e;}.cls-69{fill:#6e6a8f;}.cls-70{fill:#6f6b90;}.cls-71{fill:#6f6b91;}.cls-72{fill:#706c92;}.cls-73{fill:#716c93;}.cls-74{fill:#716d94;}.cls-75{fill:#726e95;}.cls-76{fill:#736e96;}.cls-77{fill:#746f97;}.cls-78{fill:#747098;}.cls-79{fill:#757099;}.cls-80{fill:#767199;}.cls-81{fill:#76729a;}.cls-82{fill:#77729b;}.cls-83{fill:#78739c;}.cls-84{fill:#78749d;}.cls-85{fill:#79749e;}.cls-86{fill:#7a759f;}.cls-87{fill:#7b76a0;}.cls-88{fill:#7b76a1;}.cls-89{fill:#7c77a2;}.cls-90{fill:#7d78a3;}.cls-91{fill:#7e78a4;}.cls-92{fill:#7e79a5;}.cls-93{fill:#7f7aa6;}.cls-94{fill:#807aa7;}.cls-95{fill:#817ba8;}.cls-96{fill:#817ca9;}.cls-97{fill:#827daa;}.cls-98{fill:#837dac;}.cls-99{fill:#847ead;}.cls-100{fill:#847fae;}.cls-101{fill:#857faf;}.cls-102{fill:#8680b0;}.cls-103{fill:#8781b1;}.cls-104{fill:#8781b2;}.cls-105{fill:#8882b3;}.cls-106{fill:#8983b4;}.cls-107{fill:#8a84b5;}.cls-108{fill:#8a84b6;}.cls-109{fill:#8b85b7;}.cls-110{fill:#8c86b8;}.cls-111{fill:#8d86b9;}.cls-112{fill:#8d87ba;}.cls-113{fill:#8e88bc;}.cls-114{fill:#8f89bd;}.cls-115{fill:#8f89be;}.cls-116{fill:#908abf;}.cls-117{fill:#918bc0;}.cls-118{fill:#928cc1;}.cls-119{fill:#928cc2;}.cls-120{fill:#938dc3;}.cls-121{fill:#948ec4;}.cls-122{fill:url(#linear-gradient-16);}.cls-123{fill:#54529e;}.cls-124{clip-path:url(#clip-path-5);}.cls-125{fill:#313d8f;}.cls-126{fill:#2a317d;}.cls-127{stroke:#2a2e6b;stroke-linecap:square;}.cls-128{fill:#2a2e6c;}.cls-129{opacity:0.4;}.cls-130{fill:url(#linear-gradient-17);}.cls-131{fill:#c4bddf;}.cls-132{fill:#c0b8dc;}.cls-133{fill:#9f90c4;}.cls-134{fill:url(#linear-gradient-18);}.cls-135{fill:url(#linear-gradient-19);}.cls-136{fill:#2a295e;}.cls-137{fill:#f08aa6;}.cls-138{stroke-linecap:round;}.cls-139{fill:url(#linear-gradient-20);}.cls-140{fill:#ededed;}.cls-141{fill:url(#linear-gradient-21);}.cls-142{fill:url(#linear-gradient-22);}.cls-143{fill:#7c7a8e;}.cls-144{fill:#7d7a8f;}.cls-145{fill:#7e7b90;}.cls-146{fill:#7e7c90;}.cls-147{fill:#7f7d91;}.cls-148{fill:#807e92;}.cls-149{fill:#817f92;}.cls-150{fill:#828093;}.cls-151{fill:#838194;}.cls-152{fill:#848194;}.cls-153{fill:#858295;}.cls-154{fill:#868396;}.cls-155{fill:#878496;}.cls-156{fill:#888597;}.cls-157{fill:#888698;}.cls-158{fill:#898799;}.cls-159{fill:#8a8899;}.cls-160{fill:#8b899a;}.cls-161{fill:#8c8a9b;}.cls-162{fill:#8d8b9b;}.cls-163{fill:#8e8c9c;}.cls-164{fill:#8f8d9d;}.cls-165{fill:#908e9e;}.cls-166{fill:#918e9e;}.cls-167{fill:#928f9f;}.cls-168{fill:#9390a0;}.cls-169{fill:#9391a0;}.cls-170{fill:#9492a1;}.cls-171{fill:#9593a2;}.cls-172{fill:#9694a3;}.cls-173{fill:#9795a3;}.cls-174{fill:#9896a4;}.cls-175{fill:#9997a5;}.cls-176{fill:#9a98a6;}.cls-177{fill:#9b99a6;}.cls-178{fill:#9c9aa7;}.cls-179{fill:#9d9ba8;}.cls-180{fill:#9e9ca9;}.cls-181{fill:#9f9da9;}.cls-182{fill:#a09eaa;}.cls-183{fill:#a19fab;}.cls-184{fill:#a2a0ac;}.cls-185{fill:#a3a1ac;}.cls-186{fill:#a4a2ad;}.cls-187{fill:#a5a3ae;}.cls-188{fill:#a6a4af;}.cls-189{fill:#a7a5af;}.cls-190{fill:#a8a6b0;}.cls-191{fill:#a9a7b1;}.cls-192{fill:#aaa8b2;}.cls-193{fill:#aba9b2;}.cls-194{fill:#acaab3;}.cls-195{fill:#adabb4;}.cls-196{fill:#aeacb5;}.cls-197{fill:#afadb5;}.cls-198{fill:#b0aeb6;}.cls-199{fill:#b1afb7;}.cls-200{fill:#b2b0b8;}.cls-201{fill:#b3b1b9;}.cls-202{fill:#b4b2b9;}.cls-203{fill:#b5b3ba;}.cls-204{fill:#b6b4bb;}.cls-205{fill:#b7b5bc;}.cls-206{fill:#b8b6bc;}.cls-207{fill:#b9b7bd;}.cls-208{fill:#bab8be;}.cls-209{fill:#bbbabf;}.cls-210{fill:#bcbbc0;}.cls-211{fill:#bdbcc0;}.cls-212{fill:#bebdc1;}.cls-213{fill:#bfbec2;}.cls-214{fill:#c0bfc3;}.cls-215{fill:#c1c0c4;}.cls-216{fill:#c2c1c4;}.cls-217{fill:#c3c2c5;}.cls-218{fill:#c4c3c6;}.cls-219{fill:#c6c4c7;}.cls-220{fill:#c7c5c7;}.cls-221{fill:#c8c6c8;}.cls-222{fill:#c9c8c9;}.cls-223{fill:#cac9ca;}.cls-224{fill:#cbcacb;}.cls-225{fill:#cccbcb;}.cls-226{fill:#cdcccc;}.cls-227{fill:#cecdcd;}.cls-228{fill:#cfcece;}.cls-229{fill:#5c57a2;}.cls-230{fill:#e30613;}.cls-231{fill:#009640;}.cls-232{font-size:21px;}.cls-232,.cls-233{font-family:Lalezar-Regular, Lalezar;}.cls-233{font-size:28.07px;}</style><linearGradient id="linear-gradient" x1="236.86" y1="694.5" x2="265.71" y2="694.5" gradientUnits="userSpaceOnUse"><stop offset="0" stop-color="#dadada"/><stop offset="1" stop-color="#fff" stop-opacity="0.1"/></linearGradient><linearGradient id="linear-gradient-2" x1="705.27" y1="149.34" x2="721.8" y2="149.34" xlink:href="#linear-gradient"/><linearGradient id="linear-gradient-3" x1="591.98" y1="742.07" x2="617.95" y2="742.07" xlink:href="#linear-gradient"/><linearGradient id="linear-gradient-4" x1="580.8" y1="921.38" x2="590.45" y2="921.38" xlink:href="#linear-gradient"/><linearGradient id="linear-gradient-5" x1="299" y1="578.36" x2="314.5" y2="578.36" xlink:href="#linear-gradient"/><linearGradient id="linear-gradient-6" x1="446.93" y1="458.95" x2="457.47" y2="458.95" xlink:href="#linear-gradient"/><linearGradient id="linear-gradient-7" x1="584.88" y1="555.58" x2="584.88" y2="194.12" gradientUnits="userSpaceOnUse"><stop offset="0" stop-color="#7e5ca3"/><stop offset="1" stop-color="#be89bc"/></linearGradient><linearGradient id="linear-gradient-8" x1="802.59" y1="576.16" x2="802.59" y2="158.07" gradientUnits="userSpaceOnUse"><stop offset="0" stop-color="#c59dc9"/><stop offset="1" stop-color="#f8c3c2"/></linearGradient><linearGradient id="linear-gradient-9" x1="1020.88" y1="596.73" x2="1020.88" y2="116.98" gradientUnits="userSpaceOnUse"><stop offset="0" stop-color="#4355a1"/><stop offset="1" stop-color="#346eb5"/></linearGradient><linearGradient id="linear-gradient-10" x1="419.71" y1="416.29" x2="419.71" y2="320.57" gradientUnits="userSpaceOnUse"><stop offset="0" stop-color="#f6b5bd"/><stop offset="1" stop-color="#c0add5"/></linearGradient><linearGradient id="linear-gradient-11" x1="575.47" y1="137.26" x2="575.47" gradientUnits="userSpaceOnUse"><stop offset="0" stop-color="#6eafe0"/><stop offset="1" stop-color="#8ad1f1"/></linearGradient><linearGradient id="linear-gradient-12" x1="879.4" y1="226.05" x2="879.4" y2="77.21" gradientUnits="userSpaceOnUse"><stop offset="0" stop-color="#cb79b0"/><stop offset="1" stop-color="#f3a2b9"/></linearGradient><linearGradient id="linear-gradient-13" x1="1293.13" y1="182.57" x2="1293.13" y2="2.66" gradientUnits="userSpaceOnUse"><stop offset="0" stop-color="#625aa4"/><stop offset="1" stop-color="#616fb3"/></linearGradient><clipPath id="clip-path"><path class="cls-1" d="M1099.17,861.36c-.1-5.35,0-14.39.47-22.65a203,203,0,0,1,2.36-22.5,160.28,160.28,0,0,1,6.43-26.28,124.22,124.22,0,0,1,10.43-23.79,103.7,103.7,0,0,1,13.35-18.57c13.47-14.67,28.61-21,40.08-25.71,13.12-5.45,23.37-7.45,33.57-9.43,22-4.29,32-2.56,36.71-1.57,5,1,8.81,2,11.19,3.76a1.5,1.5,0,0,1,.41,1.83,3.94,3.94,0,0,1-1.05,1.69,60.45,60.45,0,0,1-5.59,4.82,66.09,66.09,0,0,1-18.82,9.75c-30.92,11.32-29.64,11.28-34.25,12.83-10.75,3.59-10.11,3.5-18.57,6.39-21.16,7.22-16.2,5.67-28,9.5-10.55,3.43-14.83,5-20.54,9.71a46.21,46.21,0,0,0-7.68,8,59.09,59.09,0,0,0-9.42,19.29c-3.44,11.75-6.74,34.82-7.43,62.43C1101.62,860.88,1100.41,861.33,1099.17,861.36Z"/></clipPath><clipPath id="clip-path-2"><path class="cls-1" d="M957,737.61a5.27,5.27,0,0,1-3.43-2.36s-1-1.79.1-4.77c3.44-9.34,29.68-19.12,29.68-19.12,11.75-4.38,19.38-7.23,30.86-9.54,12.44-2.5,22.69-4.45,35.25-1.28a53.05,53.05,0,0,1,9.32,3.21c22.17,10.67,22,57.47,21.89,61.25q1.08,51.64,2.15,103.29h-4.57q-1-51.87-2-103.72c-.12-3.59-.32-6.71-.54-9.23-.13-1.57-.21-2.14-1.88-14.09-.6-4.34-.93-6.56-2.25-8.73a12.8,12.8,0,0,0-4.44-4.66c-3.76-2.18-7.44-1-14.73.16-3.68.57,5.38-1-13.77,1.39-13.28,1.66-23.11,3.09-23.11,3.09-10.34,1.11-18.67,2.6-24.5,3.79C991.07,736.29,968.37,740.91,957,737.61Z"/></clipPath><clipPath id="clip-path-3"><path class="cls-1" d="M994.86,611.18a11.1,11.1,0,0,1,3.43-6.72c3.7-3.13,9.12-2.21,12.46-1.6,6.16,1.13,11.17,3.91,16.93,8.32A98.29,98.29,0,0,1,1045,628.29a194.6,194.6,0,0,1,19.93,30.57,247.93,247.93,0,0,1,19.43,51.93,313,313,0,0,1,7.5,42.5c1.5,12.3,2.21,22.73,2.57,30.42q.08,40.37.14,80.72l-4.43-.14-.57-88.29a105.78,105.78,0,0,0-1.14-14.43,107.12,107.12,0,0,0-9-29.57c-4-8.31-13.13-19-31.29-40-7.37-8.53-10.36-11.73-16.71-19.57-6-7.37-9.78-12.52-16.14-21.14C999.3,629.62,993.3,619.93,994.86,611.18Z"/></clipPath><clipPath id="clip-path-4"><path class="cls-1" d="M971.29,820.43a25.44,25.44,0,0,1-7.91.88,7.36,7.36,0,0,1-3.91-1.42,7.69,7.69,0,0,1-1.33-7.32,31.9,31.9,0,0,1,5.15-9.14,95.79,95.79,0,0,1,15.42-13.86A101.24,101.24,0,0,1,996.86,779a82.34,82.34,0,0,1,17.43-5.86c5.37-1.13,11-2.32,18.28-1.43a51.34,51.34,0,0,1,13.43,3.86c20.11,9.28,21.9,42.14,24.29,70.43.57,6.85.77,12.52.85,16.29l-3.85-.15q-.29-7.92-.58-15.85a153,153,0,0,0-.85-15.29c-1-9.38-1.89-17.69-6-27.14a65.62,65.62,0,0,0-8.57-14.29,14.57,14.57,0,0,0-4.22-2.43c-6.46-2.33-13,.94-19.43,4.29-14.43,7.5-21.65,11.24-24.85,13.25a258,258,0,0,1-22.72,12.86A48,48,0,0,1,971.29,820.43Z"/></clipPath><linearGradient id="linear-gradient-14" x1="1054.43" y1="881.46" x2="1113.35" y2="881.46" gradientUnits="userSpaceOnUse"><stop offset="0" stop-color="#f0f1f0"/><stop offset="1" stop-color="#c6c6c6"/></linearGradient><linearGradient id="linear-gradient-15" x1="1054.43" y1="880" x2="1113.35" y2="880" gradientUnits="userSpaceOnUse"><stop offset="0" stop-color="#59539f"/><stop offset="1" stop-color="#403e7c"/></linearGradient><linearGradient id="linear-gradient-16" x1="758.51" y1="920.05" x2="766.59" y2="862.58" gradientUnits="userSpaceOnUse"><stop offset="0" stop-color="#d6c4e1"/><stop offset="1" stop-color="#f5eff7"/></linearGradient><clipPath id="clip-path-5"><path class="cls-1" d="M322.64,839.07a54.13,54.13,0,0,0,4.93,8.47c1.05,1.46,5.64,7.56,15.22,13.71s18.12,8.33,26.25,10.39a125.11,125.11,0,0,0,23.89,3.65l44.68.21c3.49-.31,9.46-.9,16.82-1.93,42.05-5.87,65.23-17.11,77.57-24.43,6.34-3.76,11.69-7.59,16-14,5.55-8.24,6.67-16.74,7.57-23.57,1.13-8.53,1.91-14.43-.71-21.57-4-10.85-12.82-16.35-15.15-17.75-6.61-4-13.69-5.23-18.71-6.11a68.71,68.71,0,0,0-6.86-.85H491.29c0-.38,0-1-.06-1.65a74.77,74.77,0,0,0-4.34-21.59c-5.44-16.07-8.17-24.11-10.28-29.3a326.1,326.1,0,0,0-16.93-36.21,210.82,210.82,0,0,0-17.47-27.11,85.32,85.32,0,0,0-13-13.82c-3.23-2.74-5.09-4.44-7.71-5.79a29.08,29.08,0,0,0-12.43-3.11c-.11-1.57-.22-3.14-.32-4.71l3.42-.11a53.65,53.65,0,0,0,7.29-.85,39.61,39.61,0,0,0,6.86-1.83,27.82,27.82,0,0,0,5.25-2.46,22.16,22.16,0,0,0,6-5.14,18,18,0,0,0,3.85-7.82,16.85,16.85,0,0,0,.11-6.11l1.72-.32a7.91,7.91,0,0,0,1.92-1.4,4,4,0,0,0,1.36-1.78,3.12,3.12,0,0,0-.39-2.32l-3.32-5.57c.29-3.47.47-6.49-1-10.1a44.9,44.9,0,0,1-2.56-5.65l-1.11-8,1.29-1.61a20.5,20.5,0,0,0,3.21-16.1,20.07,20.07,0,0,0-5.5-9.65,21.3,21.3,0,0,0-9.78-5.32c-8.66-2.35-17.67,1.09-20,2.47a8.91,8.91,0,0,1-3,1.16,9.68,9.68,0,0,1-3.54-.06c-1.07-.16-1,0-6.86.06-10.24.19-9.62-.14-11.57.21a21,21,0,0,0-8.46,3.21,19.06,19.06,0,0,0-5.47,5.63,18.13,18.13,0,0,0-2.57,9.59,24.85,24.85,0,0,0-4,3.59,32.58,32.58,0,0,0-4.45,6.91c-2.37,4.43-2.95,5.37-3.21,6.75a15.17,15.17,0,0,0-.11,4.28,52.68,52.68,0,0,0,1.82,12.11,48.91,48.91,0,0,0,4.45,10.34,108.36,108.36,0,0,0,17,22.23l1.5.38c-.05,2.46-.11,4.93-.16,7.39a23.57,23.57,0,0,0-2.95,0,26,26,0,0,0-6,1.4c-6.17,2.29-12.21,8-12.21,8a75.84,75.84,0,0,0-11.63,14.41c-4.93,7.66-7.73,14.22-10.87,21.59-2.22,5.21-3.69,9.24-4.72,12-3.7,10.2-5.94,18.28-6.85,21.7-1.14,4.24-2.22,9.18-4.4,19.07-1.81,8.25-2.72,12.38-3.75,17.47-.65,3.21-1.26,6.35-2.35,10.92-.92,3.82-1.48,6.2-2.47,9.33-1.61,5.12-2.31,5.81-4.28,11.46A72.31,72.31,0,0,0,303,784.86c-.92,4.89-1.69,9-.33,14a22.56,22.56,0,0,0,4.18,8.25,21.24,21.24,0,0,0,7.29,5.79,19,19,0,0,0,4.28,1.39,35.53,35.53,0,0,0-.42,10.39C318.7,830.84,320.84,835.3,322.64,839.07Z"/></clipPath><linearGradient id="linear-gradient-17" x1="277.24" y1="722.34" x2="492.75" y2="722.34" gradientUnits="userSpaceOnUse"><stop offset="0" stop-color="#e5dbed"/><stop offset="1" stop-color="#fff"/></linearGradient><linearGradient id="linear-gradient-18" x1="377.23" y1="623.36" x2="452.27" y2="580.04" gradientUnits="userSpaceOnUse"><stop offset="0" stop-color="#f9ced7"/><stop offset="1" stop-color="#f8c6ce"/></linearGradient><linearGradient id="linear-gradient-19" x1="376.69" y1="623.38" x2="451.73" y2="580.06" xlink:href="#linear-gradient-18"/><linearGradient id="linear-gradient-20" x1="480.57" y1="876.46" x2="531.79" y2="876.46" gradientUnits="userSpaceOnUse"><stop offset="0" stop-color="#a0cff1"/><stop offset="1" stop-color="#9bbde5"/></linearGradient><linearGradient id="linear-gradient-21" x1="499.82" y1="825.98" x2="516.04" y2="831.04" xlink:href="#linear-gradient-20"/><linearGradient id="linear-gradient-22" x1="474.73" y1="867.99" x2="529.87" y2="885.19" gradientUnits="userSpaceOnUse"><stop offset="0" stop-color="#a1b8e1"/><stop offset="1" stop-color="#9cbbe3"/></linearGradient></defs><g id="Layer_2" data-name="Layer 2"><g id="iptv2"><path class="cls-2" d="M1459.17,702.8,567.79,609.62,61.67,906.12a5,5,0,0,0,1.8,9.17l896,128.21a38.58,38.58,0,0,0,27.25-6.35L1461.6,712.38A5.26,5.26,0,0,0,1459.17,702.8Z"/><path class="cls-2" d="M1090.56,1037.77l-138.27-22.43a1.29,1.29,0,0,1-.51-2.34l76.79-51.57,136.61,16.46a1.47,1.47,0,0,1,.73,2.61l-73,56.67A3.09,3.09,0,0,1,1090.56,1037.77Z"/><path class="cls-2" d="M913.49,910.12,780.64,884.79l74.63-50.3a1.69,1.69,0,0,1,1.14-.27l136.88,16.41a1.68,1.68,0,0,1,.82,3l-70.56,54.1A12.64,12.64,0,0,1,913.49,910.12Z"/><polygon class="cls-2" points="336.64 800.96 537.13 833.89 417.86 922.57 206.54 888.78 336.64 800.96"/><polygon class="cls-2" points="172.46 810.93 22.57 785.71 126.57 742 273.71 760.86 172.46 810.93"/><polygon class="cls-2" points="88.12 852.81 0 837.99 61.14 812.29 147.64 823.37 88.12 852.81"/><circle class="cls-3" cx="251.29" cy="694.5" r="14.43"/><ellipse class="cls-4" cx="713.54" cy="149.34" rx="8.27" ry="10.71"/><circle class="cls-5" cx="604.96" cy="742.07" r="12.98"/><ellipse class="cls-6" cx="585.63" cy="921.37" rx="4.82" ry="6.68"/><ellipse class="cls-7" cx="306.75" cy="578.36" rx="7.75" ry="10"/><ellipse class="cls-8" cx="452.2" cy="458.95" rx="5.27" ry="6.8"/><path class="cls-9" d="M1227.45,535.26l176.16,16.91a7.93,7.93,0,0,0,8.68-7.89V410.2a7.93,7.93,0,0,0-8.06-7.93l-176.15,2.89a7.92,7.92,0,0,0-7.79,7.92V527.37A7.93,7.93,0,0,0,1227.45,535.26Z"/><rect class="cls-10" x="1246.57" y="434.86" width="58.29" height="7.71"/><polygon class="cls-10" points="1357.86 477.57 1246.57 473.71 1246.57 466 1357.86 469.86 1357.86 477.57"/><polygon class="cls-10" points="1366.14 499.43 1246.57 492.43 1246.57 484.71 1366.14 491.71 1366.14 499.43"/><polygon class="cls-10" points="1303.14 517.79 1246.57 514.29 1246.57 506.57 1303.14 510.07 1303.14 517.79"/><ellipse class="cls-10" cx="1364.07" cy="406" rx="14.64" ry="20.14"/><path class="cls-9" d="M311.3,345.09l130.59-1.41A13.69,13.69,0,0,0,455.43,330v-85.4a13.7,13.7,0,0,0-16.06-13.49L308.79,254a13.7,13.7,0,0,0-11.33,13.49v63.9A13.7,13.7,0,0,0,311.3,345.09Z"/><polygon class="cls-10" points="373 276.14 315.57 279.57 315.57 271.43 373 268 373 276.14"/><polygon class="cls-10" points="406.29 304.29 315.57 307.71 315.57 299.57 406.29 296.14 406.29 304.29"/><polygon class="cls-10" points="378.14 327.14 315.57 328 315.57 319.86 378.14 319 378.14 327.14"/><g id="TV"><path class="cls-11" d="M1191.35,156.4V723.47c0,9.71-8.47,18.78-18.11,17.65l-286-33.41-.3,25.7,106.06,15V763l-19,13.27L676.1,734.07V719.5L712,708.61l74.45,10.55v16L853,744.56V702.17l-308.49-36a14.4,14.4,0,0,1-12.73-14.3V262.7a14.4,14.4,0,0,1,12-14.19L1172.37,140.4A16.24,16.24,0,0,1,1191.35,156.4Z"/><path class="cls-10" d="M1178.28,156.4V723.47a16.23,16.23,0,0,1-18.11,16.12L853,703.7v40.87l121,17.14v14.57L676.1,734.07V719.5l110.33,15.63V695.92l-255-29.8a14.4,14.4,0,0,1-12.73-14.3V262.7a14.4,14.4,0,0,1,12-14.19L1159.3,140.4A16.24,16.24,0,0,1,1178.28,156.4Z"/><path class="cls-12" d="M546.94,654.79l596.54,70.27a15.81,15.81,0,0,0,17.66-15.71V172.86a15.8,15.8,0,0,0-18.48-15.58L546.19,259.51a14.49,14.49,0,0,0-12.05,14.28V640.4A14.49,14.49,0,0,0,546.94,654.79Z"/><ellipse class="cls-10" cx="569.02" cy="604.86" rx="11.84" ry="15.86"/><polygon class="cls-10" points="660.57 609.41 596.39 602.5 596.39 593.39 660.57 600.3 660.57 609.41"/><polygon class="cls-13" points="642.57 626.5 596.39 621.81 596.39 612.71 642.57 617.39 642.57 626.5"/></g><path class="cls-14" d="M661.84,555.52,505,542.14a17,17,0,0,1-15.56-16.94V238.83a17,17,0,0,1,14.05-16.74l156.82-27.71a17,17,0,0,1,20,16.74V538.58A17,17,0,0,1,661.84,555.52Z"/><path class="cls-15" d="M879.55,576.09,722.73,562.71a17,17,0,0,1-15.55-16.94v-343a17,17,0,0,1,14-16.74L878,158.34a17,17,0,0,1,20,16.74V559.15A17,17,0,0,1,879.55,576.09Z"/><path class="cls-16" d="M1097.84,596.66,941,583.28a17,17,0,0,1-15.56-16.94V161.69a17,17,0,0,1,14-16.74l156.82-27.71a17,17,0,0,1,20,16.74V579.73A17,17,0,0,1,1097.84,596.66Z"/><ellipse class="cls-17" cx="429.14" cy="376.71" rx="37.71" ry="47.86"/><ellipse class="cls-18" cx="419.71" cy="368.43" rx="37.71" ry="47.86"/><ellipse class="cls-17" cx="588.55" cy="80.51" rx="52.31" ry="68.63"/><ellipse class="cls-19" cx="575.47" cy="68.63" rx="52.31" ry="68.63"/><ellipse class="cls-17" cx="894.03" cy="164.51" rx="58.53" ry="74.42"/><ellipse class="cls-20" cx="879.4" cy="151.63" rx="58.53" ry="74.42"/><ellipse class="cls-17" cx="1309.93" cy="108.19" rx="67.21" ry="89.96"/><ellipse class="cls-21" cx="1293.13" cy="92.61" rx="67.21" ry="89.96"/><g id="Screen"><polygon class="cls-22" points="562.86 251.57 520.29 254.43 520.29 245.14 562.86 242.54 562.86 251.57"/><polygon class="cls-22" points="590.07 469.29 520.43 467.71 520.43 458.5 590.07 460.07 590.07 469.29"/><polygon class="cls-22" points="630.29 496 520.5 492.93 520.5 483.71 630.29 486.79 630.29 496"/><polygon class="cls-22" points="609.86 519.64 520.5 515.93 520.5 506.71 609.86 510.43 609.86 519.64"/><path class="cls-23" d="M557.11,339v36.9A7,7,0,0,0,567.6,382l32-18.45a7,7,0,0,0,0-12.12l-32-18.45A7,7,0,0,0,557.11,339Z"/><polygon class="cls-22" points="779.34 219.38 736.77 222.23 736.77 212.95 779.34 210.34 779.34 219.38"/><polygon class="cls-22" points="804.84 483.38 735.2 481.8 735.2 472.59 804.84 474.16 804.84 483.38"/><polygon class="cls-22" points="845.05 510.95 735.27 507.88 735.27 498.66 845.05 501.73 845.05 510.95"/><polygon class="cls-22" points="824.63 534.59 735.27 530.88 735.27 521.66 824.63 525.38 824.63 534.59"/><path class="cls-23" d="M770.9,325.92v38.94a7.38,7.38,0,0,0,11.07,6.4l33.73-19.48a7.38,7.38,0,0,0,0-12.79L782,319.52A7.38,7.38,0,0,0,770.9,325.92Z"/><polygon class="cls-22" points="996.05 180.78 953.48 183.64 953.48 174.35 996.05 171.75 996.05 180.78"/><polygon class="cls-22" points="1023.52 497.82 953.88 496.25 953.88 487.03 1023.52 488.6 1023.52 497.82"/><polygon class="cls-22" points="1063.73 525.39 953.95 522.32 953.95 513.1 1063.73 516.17 1063.73 525.39"/><polygon class="cls-22" points="1043.31 549.03 953.95 545.32 953.95 536.1 1043.31 539.82 1043.31 549.03"/><path class="cls-23" d="M989.54,315.82v38.95a7.39,7.39,0,0,0,11.08,6.39l33.73-19.47a7.39,7.39,0,0,0,0-12.79l-33.73-19.47A7.38,7.38,0,0,0,989.54,315.82Z"/></g><g id="Plant"><ellipse class="cls-12" cx="1083.89" cy="852.57" rx="29.46" ry="8.79"/><g class="cls-24"><path class="cls-25" d="M1099.17,861.14c-.1-5.35,0-14.17.47-22.43a203,203,0,0,1,2.36-22.5,160.28,160.28,0,0,1,6.43-26.28,124.22,124.22,0,0,1,10.43-23.79,103.7,103.7,0,0,1,13.35-18.57c13.47-14.67,28.61-21,40.08-25.71,13.12-5.45,23.37-7.45,33.57-9.43,22-4.29,32-2.56,36.71-1.57,5,1,8.81,2,11.19,3.76a1.5,1.5,0,0,1,.41,1.83,3.94,3.94,0,0,1-1.05,1.69,60.45,60.45,0,0,1-5.59,4.82,66.09,66.09,0,0,1-18.82,9.75c-30.92,11.32-29.64,11.28-34.25,12.83-10.75,3.59-10.11,3.5-18.57,6.39-21.16,7.22-16.2,5.67-28,9.5-10.55,3.43-14.83,5-20.54,9.71a46.21,46.21,0,0,0-7.68,8,59.09,59.09,0,0,0-9.42,19.29c-3.44,11.75-6.69,34.68-7.38,62.28C1101.67,860.74,1100.41,861.12,1099.17,861.14Z"/><path class="cls-10" d="M1133.89,757.59c13.07-9.6,27.46-17,42.33-23.28a253.44,253.44,0,0,1,69.92-17.93l8-.85a.18.18,0,0,1,.2.16.19.19,0,0,1-.17.2l-8,.93a254.25,254.25,0,0,0-71.34,19.4c-13.92,6.27-27.7,13.55-39.86,22.75a.87.87,0,0,1-1.27-.14.88.88,0,0,1,.17-1.24Z"/><path class="cls-10" d="M1151.63,730.69l-5.62,20.6-.55-1.1,16.65,6.73a.4.4,0,0,1,.23.53.41.41,0,0,1-.51.24l-17-5.82a.87.87,0,0,1-.55-1.09l6.54-20.32a.42.42,0,0,1,.8.23Z"/><path class="cls-10" d="M1174.93,720.32l-5.36,18.39-.41-1L1188.28,748a.3.3,0,0,1-.27.54l-19.58-9.35a.8.8,0,0,1-.41-1l6.43-18a.25.25,0,0,1,.48.15Z"/><path class="cls-10" d="M1200.69,710.59l-8,18.49-.34-.84,25.48,10.58a.26.26,0,0,1,.13.33.25.25,0,0,1-.32.13l-25.75-9.89a.6.6,0,0,1-.35-.78s8.84-18.13,8.82-18.18a.19.19,0,0,1,.35.16Z"/><path class="cls-10" d="M1227.05,709.41,1220.79,721l-.15-.43,19.74,7.66a.12.12,0,1,1-.08.22l-19.88-7.31a.31.31,0,0,1-.16-.44l6.66-11.39c0-.08.17,0,.13.07Z"/></g><g class="cls-26"><path class="cls-25" d="M957,737.61a5.27,5.27,0,0,1-3.43-2.36s-1-1.79.1-4.77c3.44-9.34,29.68-19.12,29.68-19.12,11.75-4.38,19.38-7.23,30.86-9.54,12.44-2.5,22.69-4.45,35.25-1.28a53.05,53.05,0,0,1,9.32,3.21c22.17,10.67,22,57.47,21.89,61.25q1.08,51.64,2.15,103.29h-4.57q-1-51.87-2-103.72c-.12-3.59-.32-6.71-.54-9.23-.13-1.57-.21-2.14-1.88-14.09-.6-4.34-.93-6.56-2.25-8.73a12.8,12.8,0,0,0-4.44-4.66c-3.76-2.18-7.44-1-14.73.16-3.68.57,5.38-1-13.77,1.39-13.28,1.66-23.11,3.09-23.11,3.09-10.34,1.11-18.67,2.6-24.5,3.79C991.07,736.29,968.37,740.91,957,737.61Z"/><path class="cls-10" d="M1058,714.08c-20.12-2.39-40.57,1.46-60.11,6.16-10.83,2.82-21.78,6.38-32.26,10.22l-12.6,5,12.55-5.11c21-8,43-14.47,65.44-17.05,9-.89,18.1-1.54,27.19-.35l-.21,1.16Z"/><path class="cls-10" d="M1035,729.88l9.41-17.35.16.77L1027,699.55l18.26,12.8.45.31-.29.46S1035,729.89,1035,729.88Z"/><path class="cls-10" d="M1011.91,732.85l7.6-17.84.23.77-17-11.14,17.62,10.11.49.28-.25.49s-8.65,17.47-8.7,17.33Z"/><path class="cls-10" d="M989.66,736.55l5.37-16.1.2.52s-14.86-8.42-14.78-8.44l15.18,7.69.34.17-.14.35-6.17,15.81Z"/><polygon class="cls-10" points="969.43 739 973.94 727.21 974.05 727.48 962.54 721.75 974.24 727.09 974.42 727.18 974.34 727.37 969.43 739 969.43 739"/></g><g class="cls-27"><path class="cls-25" d="M994.86,611.18a11.1,11.1,0,0,1,3.43-6.72c3.7-3.13,9.12-2.21,12.46-1.6,6.16,1.13,11.17,3.91,16.93,8.32A98.29,98.29,0,0,1,1045,628.29a194.6,194.6,0,0,1,19.93,30.57,247.93,247.93,0,0,1,19.43,51.93,313,313,0,0,1,7.5,42.5c1.5,12.3,2.21,22.73,2.57,30.42q.08,40.37.14,80.72l-4.43-.14-.57-88.29a105.78,105.78,0,0,0-1.14-14.43,107.12,107.12,0,0,0-9-29.57c-4-8.31-13.13-19-31.29-40-7.37-8.53-10.36-11.73-16.71-19.57-6-7.37-9.78-12.52-16.14-21.14C999.3,629.62,993.3,619.93,994.86,611.18Z"/><path class="cls-10" d="M1074.22,710.82c-6.86-19.67-17.41-38.41-29.59-55.31-1.25-1.68-3.76-5.06-5-6.73-2.51-3-5.46-6.8-8-9.7a228.49,228.49,0,0,0-23.95-23.54c-3.68-3.32-9.31-7.29-13.23-10.4a.36.36,0,1,1,.44-.58l6.72,5.1a216.56,216.56,0,0,1,33.5,32c2.4,2.9,5.73,6.81,7.93,9.87a241.22,241.22,0,0,1,14.26,20.9,206.48,206.48,0,0,1,18.33,38,.71.71,0,1,1-1.35.43Z"/><polygon class="cls-10" points="1046.48 690.89 1066.38 689.46 1065.54 690 1073.9 675.13 1074.39 675.38 1067.32 690.91 1067.08 691.45 1066.47 691.46 1046.52 691.75 1046.48 690.89 1046.48 690.89"/><polygon class="cls-10" points="1028.18 669.49 1055.28 669.28 1054.33 669.96 1061.92 650 1062.37 650.15 1056.22 670.6 1056.01 671.3 1055.26 671.28 1028.17 670.51 1028.18 669.49 1028.18 669.49"/><path class="cls-10" d="M1011.25,648.17l28.07-1.22-.58.44,7.2-21.75h0l-6.06,22.1-.12.44h-.46c0-.15-28.4.41-28.1,0Z"/><path class="cls-10" d="M998.5,628.37c5.4-.06,12.14-.4,17.57-.62l5.86-.33-.6.57c.24-1.83.41-3.67.61-5.5q.51-5.52.82-11l.15-2.76a3.22,3.22,0,0,0-.77-2.82l2,.11a3.24,3.24,0,0,0-1.07,2.72l-.15,2.76c-.19,3.68-.33,7.37-.38,11.06,0,2,0,4.09,0,6.13-.14,0-6.14-.15-6.48-.14-2.91,0-8.8-.08-11.72-.07-2,0-3.91-.05-5.86,0v-.11Z"/></g><g class="cls-28"><path class="cls-25" d="M971.29,820.43a25.44,25.44,0,0,1-7.91.88,7.36,7.36,0,0,1-3.91-1.42,7.69,7.69,0,0,1-1.33-7.32,31.9,31.9,0,0,1,5.15-9.14,95.79,95.79,0,0,1,15.42-13.86A101.24,101.24,0,0,1,996.86,779a82.34,82.34,0,0,1,17.43-5.86c5.37-1.13,11-2.32,18.28-1.43a51.34,51.34,0,0,1,13.43,3.86c20.11,9.28,21.9,42.14,24.29,70.43.57,6.85.77,12.52.85,16.29l-3.85-.15q-.29-7.92-.58-15.85a153,153,0,0,0-.85-15.29c-1-9.38-1.89-17.69-6-27.14a65.62,65.62,0,0,0-8.57-14.29,14.57,14.57,0,0,0-4.22-2.43c-6.46-2.33-13,.94-19.43,4.29-14.43,7.5-21.65,11.24-24.85,13.25a258,258,0,0,1-22.72,12.86A48,48,0,0,1,971.29,820.43Z"/><path class="cls-10" d="M959.64,820c20.57-18.22,59.4-47.26,88.18-38.75a.79.79,0,1,1-.49,1.5,35.94,35.94,0,0,0-12-1.67c-26.49,1-56,22.11-75.7,38.92Z"/><polygon class="cls-10" points="1030.77 789.85 1031.5 780.44 1031.72 781.06 1022.57 771.68 1032.67 780.03 1032.97 780.28 1032.89 780.65 1030.77 789.85 1030.77 789.85"/><path class="cls-10" d="M1008.84,801.26l-.33-14.31.3.63L998,778.51l11.75,7.87.34.22,0,.4s-1.11,14.33-1.16,14.26Z"/><path class="cls-10" d="M989.42,812.65l-.39-15,.27.37s-15-5.07-14.93-5.1l15.16,4.35.28.08v.3l-.39,15Z"/><polygon class="cls-10" points="975.88 819.14 975.76 806.78 975.95 807 961.98 805.15 976 806.57 976.2 806.59 976.19 806.78 975.88 819.14 975.88 819.14"/></g><path class="cls-29" d="M1113.35,852.57v49c0,4.86-13.19,8.79-29.46,8.79s-29.46-3.93-29.46-8.79v-49c0,4.85,13.19,8.78,29.46,8.78S1113.35,857.42,1113.35,852.57Z"/><path class="cls-30" d="M1113.35,882.57c0,8.57-58.92,8.57-58.92,0V871c0,10.48,58.92,10.48,58.92,0Z"/></g><g id="Laptop"><path class="cls-31" d="M791.31,937.52l-152.79-19a.78.78,0,0,1-.29-1.45l93.65-54a1.8,1.8,0,0,1,1.14-.23l152.71,20a1.27,1.27,0,0,1,.46,2.37Z"/><path class="cls-32" d="M791.31,937.43l-152.79-19a.78.78,0,0,1-.29-1.45l93.65-54a1.8,1.8,0,0,1,1.14-.23l152.71,19.95a1.27,1.27,0,0,1,.46,2.37Z"/><path class="cls-33" d="M791.31,937.34l-152.79-19a.77.77,0,0,1-.29-1.44l93.65-54a1.87,1.87,0,0,1,1.14-.22l152.71,19.94a1.28,1.28,0,0,1,.46,2.38Z"/><path class="cls-34" d="M791.31,937.26l-152.79-19a.78.78,0,0,1-.29-1.45l93.65-54a1.8,1.8,0,0,1,1.14-.23l152.71,20a1.27,1.27,0,0,1,.46,2.37Z"/><path class="cls-35" d="M791.31,937.17l-152.79-19a.78.78,0,0,1-.29-1.45l93.65-54a1.8,1.8,0,0,1,1.14-.23l152.71,20a1.27,1.27,0,0,1,.46,2.37Z"/><path class="cls-36" d="M791.31,937.08l-152.79-19a.78.78,0,0,1-.29-1.45l93.65-54a1.8,1.8,0,0,1,1.14-.23l152.71,19.95a1.27,1.27,0,0,1,.46,2.37Z"/><path class="cls-37" d="M791.31,937,638.52,918a.78.78,0,0,1-.29-1.45l93.65-54a1.73,1.73,0,0,1,1.14-.22L885.73,882.2a1.28,1.28,0,0,1,.46,2.38Z"/><path class="cls-38" d="M791.31,936.9l-152.79-19a.78.78,0,0,1-.29-1.45l93.65-54a1.8,1.8,0,0,1,1.14-.23l152.71,19.94a1.28,1.28,0,0,1,.46,2.38Z"/><path class="cls-39" d="M791.31,936.82l-152.79-19a.78.78,0,0,1-.29-1.45l93.65-54a1.8,1.8,0,0,1,1.14-.23L885.73,882a1.27,1.27,0,0,1,.46,2.37Z"/><path class="cls-40" d="M791.31,936.73l-152.79-19a.78.78,0,0,1-.29-1.45l93.65-54A1.8,1.8,0,0,1,733,862l152.71,20a1.27,1.27,0,0,1,.46,2.37Z"/><path class="cls-41" d="M791.31,936.64l-152.79-19a.78.78,0,0,1-.29-1.45l93.65-54a1.73,1.73,0,0,1,1.14-.22l152.71,19.94a1.28,1.28,0,0,1,.46,2.38Z"/><path class="cls-42" d="M791.31,936.55l-152.79-19a.77.77,0,0,1-.29-1.44L731.88,862a1.87,1.87,0,0,1,1.14-.22l152.71,19.94a1.28,1.28,0,0,1,.46,2.38Z"/><path class="cls-43" d="M791.31,936.47l-152.79-19a.78.78,0,0,1-.29-1.45l93.65-54a1.8,1.8,0,0,1,1.14-.23l152.71,19.95a1.27,1.27,0,0,1,.46,2.37Z"/><path class="cls-44" d="M791.31,936.38l-152.79-19a.78.78,0,0,1-.29-1.45l93.65-54a1.8,1.8,0,0,1,1.14-.23l152.71,20a1.27,1.27,0,0,1,.46,2.37Z"/><path class="cls-45" d="M791.31,936.29l-152.79-19a.78.78,0,0,1-.29-1.45l93.65-54a1.8,1.8,0,0,1,1.14-.23l152.71,20a1.27,1.27,0,0,1,.46,2.37Z"/><path class="cls-46" d="M791.31,936.2l-152.79-19a.77.77,0,0,1-.29-1.44l93.65-54a1.87,1.87,0,0,1,1.14-.22l152.71,19.94a1.28,1.28,0,0,1,.46,2.38Z"/><path class="cls-47" d="M791.31,936.12l-152.79-19a.78.78,0,0,1-.29-1.45l93.65-54a1.8,1.8,0,0,1,1.14-.23l152.71,19.94a1.28,1.28,0,0,1,.46,2.38Z"/><path class="cls-48" d="M791.31,936,638.52,917a.78.78,0,0,1-.29-1.45l93.65-54a1.8,1.8,0,0,1,1.14-.23l152.71,20a1.27,1.27,0,0,1,.46,2.37Z"/><path class="cls-49" d="M791.31,935.94l-152.79-19a.78.78,0,0,1-.29-1.45l93.65-54a1.8,1.8,0,0,1,1.14-.23l152.71,19.95a1.27,1.27,0,0,1,.46,2.37Z"/><path class="cls-50" d="M791.31,935.85l-152.79-19a.78.78,0,0,1-.29-1.45l93.65-54a1.73,1.73,0,0,1,1.14-.22l152.71,19.94a1.28,1.28,0,0,1,.46,2.38Z"/><path class="cls-51" d="M791.31,935.76l-152.79-19a.77.77,0,0,1-.29-1.44l93.65-54A1.8,1.8,0,0,1,733,861L885.73,881a1.28,1.28,0,0,1,.46,2.38Z"/><path class="cls-52" d="M791.31,935.68l-152.79-19a.78.78,0,0,1-.29-1.45l93.65-54a1.8,1.8,0,0,1,1.14-.23l152.71,19.95a1.27,1.27,0,0,1,.46,2.37Z"/><path class="cls-53" d="M791.31,935.59l-152.79-19a.78.78,0,0,1-.29-1.45l93.65-54a1.8,1.8,0,0,1,1.14-.23L885.73,880.8a1.27,1.27,0,0,1,.46,2.37Z"/><path class="cls-54" d="M791.31,935.5l-152.79-19a.78.78,0,0,1-.29-1.45l93.65-54a1.73,1.73,0,0,1,1.14-.22l152.71,19.94a1.27,1.27,0,0,1,.46,2.37Z"/><path class="cls-55" d="M791.31,935.41l-152.79-19a.77.77,0,0,1-.29-1.44l93.65-54.05a1.87,1.87,0,0,1,1.14-.22l152.71,19.94a1.28,1.28,0,0,1,.46,2.38Z"/><path class="cls-56" d="M791.31,935.33l-152.79-19a.78.78,0,0,1-.29-1.45l93.65-54a1.8,1.8,0,0,1,1.14-.23l152.71,19.95a1.27,1.27,0,0,1,.46,2.37Z"/><path class="cls-57" d="M791.31,935.24l-152.79-19a.78.78,0,0,1-.29-1.45l93.65-54a1.8,1.8,0,0,1,1.14-.23l152.71,20a1.27,1.27,0,0,1,.46,2.37Z"/><path class="cls-57" d="M791.31,935.15l-152.79-19a.78.78,0,0,1-.29-1.45l93.65-54a1.8,1.8,0,0,1,1.14-.23l152.71,20a1.27,1.27,0,0,1,.46,2.37Z"/><path class="cls-58" d="M791.31,935.06,638.52,916a.77.77,0,0,1-.29-1.44l93.65-54.05a1.8,1.8,0,0,1,1.14-.22l152.71,19.94a1.28,1.28,0,0,1,.46,2.38Z"/><path class="cls-59" d="M791.31,935,638.52,916a.78.78,0,0,1-.29-1.45l93.65-54a1.8,1.8,0,0,1,1.14-.23l152.71,19.94a1.28,1.28,0,0,1,.46,2.38Z"/><path class="cls-60" d="M791.31,934.89l-152.79-19a.78.78,0,0,1-.29-1.45l93.65-54a1.8,1.8,0,0,1,1.14-.23l152.71,20a1.27,1.27,0,0,1,.46,2.37Z"/><path class="cls-61" d="M791.31,934.8l-152.79-19a.78.78,0,0,1-.29-1.45l93.65-54a1.8,1.8,0,0,1,1.14-.23l152.71,20a1.27,1.27,0,0,1,.46,2.37Z"/><path class="cls-62" d="M791.31,934.71l-152.79-19a.78.78,0,0,1-.29-1.45l93.65-54A1.73,1.73,0,0,1,733,860l152.71,19.94a1.28,1.28,0,0,1,.46,2.38Z"/><path class="cls-63" d="M791.31,934.62l-152.79-19a.77.77,0,0,1-.29-1.44l93.65-54a1.8,1.8,0,0,1,1.14-.23l152.71,19.94a1.28,1.28,0,0,1,.46,2.38Z"/><path class="cls-64" d="M791.31,934.54l-152.79-19a.78.78,0,0,1-.29-1.45l93.65-54a1.8,1.8,0,0,1,1.14-.23l152.71,20a1.27,1.27,0,0,1,.46,2.37Z"/><path class="cls-65" d="M791.31,934.45l-152.79-19a.78.78,0,0,1-.29-1.45l93.65-54a1.8,1.8,0,0,1,1.14-.23l152.71,19.95a1.27,1.27,0,0,1,.46,2.37Z"/><path class="cls-65" d="M791.31,934.36l-152.79-19a.78.78,0,0,1-.29-1.45l93.65-54a1.8,1.8,0,0,1,1.14-.23l152.71,20a1.27,1.27,0,0,1,.46,2.37Z"/><path class="cls-66" d="M791.31,934.27l-152.79-19a.77.77,0,0,1-.29-1.44l93.65-54a1.87,1.87,0,0,1,1.14-.22l152.71,19.94a1.28,1.28,0,0,1,.46,2.38Z"/><path class="cls-67" d="M791.31,934.19l-152.79-19a.78.78,0,0,1-.29-1.45l93.65-54a1.8,1.8,0,0,1,1.14-.23L885.73,879.4a1.27,1.27,0,0,1,.46,2.37Z"/><path class="cls-68" d="M791.31,934.1l-152.79-19a.78.78,0,0,1-.29-1.45l93.65-54a1.8,1.8,0,0,1,1.14-.23l152.71,19.95a1.27,1.27,0,0,1,.46,2.37Z"/><path class="cls-69" d="M791.31,934,638.52,915a.78.78,0,0,1-.29-1.45l93.65-54a1.8,1.8,0,0,1,1.14-.23l152.71,20a1.27,1.27,0,0,1,.46,2.37Z"/><path class="cls-70" d="M791.31,933.92l-152.79-19a.78.78,0,0,1-.29-1.45l93.65-54a1.73,1.73,0,0,1,1.14-.22l152.71,19.94a1.28,1.28,0,0,1,.46,2.38Z"/><path class="cls-71" d="M791.31,933.83l-152.79-19a.78.78,0,0,1-.29-1.45l93.65-54a1.8,1.8,0,0,1,1.14-.23L885.73,879a1.28,1.28,0,0,1,.46,2.38Z"/><path class="cls-72" d="M791.31,933.75l-152.79-19a.78.78,0,0,1-.29-1.45l93.65-54A1.8,1.8,0,0,1,733,859l152.71,20a1.27,1.27,0,0,1,.46,2.37Z"/><path class="cls-73" d="M791.31,933.66l-152.79-19a.78.78,0,0,1-.29-1.45l93.65-54a1.8,1.8,0,0,1,1.14-.23l152.71,20a1.27,1.27,0,0,1,.46,2.37Z"/><path class="cls-74" d="M791.31,933.57l-152.79-19a.78.78,0,0,1-.29-1.45l93.65-54a1.73,1.73,0,0,1,1.14-.22l152.71,19.94a1.28,1.28,0,0,1,.46,2.38Z"/><path class="cls-75" d="M791.31,933.48l-152.79-19a.77.77,0,0,1-.29-1.44l93.65-54a1.8,1.8,0,0,1,1.14-.23l152.71,19.94a1.28,1.28,0,0,1,.46,2.38Z"/><path class="cls-76" d="M791.31,933.4l-152.79-19a.78.78,0,0,1-.29-1.45l93.65-54a1.8,1.8,0,0,1,1.14-.23l152.71,20a1.27,1.27,0,0,1,.46,2.37Z"/><path class="cls-77" d="M791.31,933.31l-152.79-19a.78.78,0,0,1-.29-1.45l93.65-54a1.8,1.8,0,0,1,1.14-.23l152.71,19.95a1.27,1.27,0,0,1,.46,2.37Z"/><path class="cls-78" d="M791.31,933.22l-152.79-19a.78.78,0,0,1-.29-1.45l93.65-54a1.8,1.8,0,0,1,1.14-.23l152.71,19.95a1.27,1.27,0,0,1,.46,2.37Z"/><path class="cls-79" d="M791.31,933.13l-152.79-19a.77.77,0,0,1-.29-1.44l93.65-54a1.87,1.87,0,0,1,1.14-.22l152.71,19.94a1.28,1.28,0,0,1,.46,2.38Z"/><path class="cls-80" d="M791.31,933.05,638.52,914a.78.78,0,0,1-.29-1.45l93.65-54a1.8,1.8,0,0,1,1.14-.23l152.71,20a1.27,1.27,0,0,1,.46,2.37Z"/><path class="cls-81" d="M791.31,933l-152.79-19a.78.78,0,0,1-.29-1.45l93.65-54a1.8,1.8,0,0,1,1.14-.23l152.71,19.95a1.27,1.27,0,0,1,.46,2.37Z"/><path class="cls-82" d="M791.31,932.87l-152.79-19a.78.78,0,0,1-.29-1.45l93.65-54a1.8,1.8,0,0,1,1.14-.23l152.71,20a1.27,1.27,0,0,1,.46,2.37Z"/><path class="cls-83" d="M791.31,932.78l-152.79-19a.78.78,0,0,1-.29-1.45l93.65-54a1.73,1.73,0,0,1,1.14-.22L885.73,878a1.28,1.28,0,0,1,.46,2.38Z"/><path class="cls-84" d="M791.31,932.69l-152.79-19a.78.78,0,0,1-.29-1.45l93.65-54A1.8,1.8,0,0,1,733,858L885.73,877.9a1.28,1.28,0,0,1,.46,2.38Z"/><path class="cls-85" d="M791.31,932.61l-152.79-19a.78.78,0,0,1-.29-1.45l93.65-54a1.8,1.8,0,0,1,1.14-.23l152.71,20a1.27,1.27,0,0,1,.46,2.37Z"/><path class="cls-86" d="M791.31,932.52l-152.79-19a.78.78,0,0,1-.29-1.45l93.65-54a1.8,1.8,0,0,1,1.14-.23l152.71,20a1.27,1.27,0,0,1,.46,2.37Z"/><path class="cls-87" d="M791.31,932.43l-152.79-19a.78.78,0,0,1-.29-1.45l93.65-54a1.73,1.73,0,0,1,1.14-.22l152.71,19.94a1.28,1.28,0,0,1,.46,2.38Z"/><path class="cls-88" d="M791.31,932.34l-152.79-19a.77.77,0,0,1-.29-1.44l93.65-54a1.87,1.87,0,0,1,1.14-.22l152.71,19.94a1.28,1.28,0,0,1,.46,2.38Z"/><path class="cls-89" d="M791.31,932.26l-152.79-19a.78.78,0,0,1-.29-1.45l93.65-54a1.8,1.8,0,0,1,1.14-.23l152.71,20a1.27,1.27,0,0,1,.46,2.37Z"/><path class="cls-90" d="M791.31,932.17l-152.79-19a.78.78,0,0,1-.29-1.45l93.65-54a1.8,1.8,0,0,1,1.14-.23l152.71,20a1.27,1.27,0,0,1,.46,2.37Z"/><path class="cls-91" d="M791.31,932.08l-152.79-19a.78.78,0,0,1-.29-1.45l93.65-54a1.8,1.8,0,0,1,1.14-.23l152.71,19.95a1.27,1.27,0,0,1,.46,2.37Z"/><path class="cls-92" d="M791.31,932,638.52,913a.77.77,0,0,1-.29-1.44l93.65-54a1.87,1.87,0,0,1,1.14-.22L885.73,877.2a1.28,1.28,0,0,1,.46,2.38Z"/><path class="cls-93" d="M791.31,931.91l-152.79-19a.78.78,0,0,1-.29-1.45l93.65-54a1.8,1.8,0,0,1,1.14-.23l152.71,19.94a1.28,1.28,0,0,1,.46,2.38Z"/><path class="cls-94" d="M791.31,931.82l-152.79-19a.78.78,0,0,1-.29-1.45l93.65-54a1.8,1.8,0,0,1,1.14-.23L885.73,877a1.27,1.27,0,0,1,.46,2.37Z"/><path class="cls-95" d="M791.31,931.73l-152.79-19a.78.78,0,0,1-.29-1.45l93.65-54A1.8,1.8,0,0,1,733,857l152.71,20a1.27,1.27,0,0,1,.46,2.37Z"/><path class="cls-96" d="M791.31,931.64l-152.79-19a.78.78,0,0,1-.29-1.45l93.65-54a1.73,1.73,0,0,1,1.14-.22l152.71,19.94a1.28,1.28,0,0,1,.46,2.38Z"/><path class="cls-97" d="M791.31,931.55l-152.79-19a.78.78,0,0,1-.29-1.45l93.65-54a1.8,1.8,0,0,1,1.14-.23l152.71,19.94a1.28,1.28,0,0,1,.46,2.38Z"/><path class="cls-98" d="M791.31,931.47l-152.79-19a.78.78,0,0,1-.29-1.45l93.65-54a1.8,1.8,0,0,1,1.14-.23l152.71,19.95a1.27,1.27,0,0,1,.46,2.37Z"/><path class="cls-99" d="M791.31,931.38l-152.79-19a.78.78,0,0,1-.29-1.45l93.65-54a1.8,1.8,0,0,1,1.14-.23l152.71,20a1.27,1.27,0,0,1,.46,2.37Z"/><path class="cls-100" d="M791.31,931.29l-152.79-19a.78.78,0,0,1-.29-1.45l93.65-54a1.73,1.73,0,0,1,1.14-.22L885.73,876.5a1.27,1.27,0,0,1,.46,2.37Z"/><path class="cls-101" d="M791.31,931.2l-152.79-19a.77.77,0,0,1-.29-1.44l93.65-54a1.87,1.87,0,0,1,1.14-.22l152.71,19.94a1.28,1.28,0,0,1,.46,2.38Z"/><path class="cls-102" d="M791.31,931.12l-152.79-19a.78.78,0,0,1-.29-1.45l93.65-54a1.8,1.8,0,0,1,1.14-.23l152.71,20a1.27,1.27,0,0,1,.46,2.37Z"/><path class="cls-103" d="M791.31,931,638.52,912a.78.78,0,0,1-.29-1.45l93.65-54a1.8,1.8,0,0,1,1.14-.23l152.71,20a1.27,1.27,0,0,1,.46,2.37Z"/><path class="cls-104" d="M791.31,930.94l-152.79-19a.78.78,0,0,1-.29-1.45l93.65-54a1.8,1.8,0,0,1,1.14-.23l152.71,19.95a1.27,1.27,0,0,1,.46,2.37Z"/><path class="cls-105" d="M791.31,930.85l-152.79-19a.77.77,0,0,1-.29-1.44l93.65-54a1.8,1.8,0,0,1,1.14-.22l152.71,19.94a1.28,1.28,0,0,1,.46,2.38Z"/><path class="cls-106" d="M791.31,930.77l-152.79-19a.78.78,0,0,1-.29-1.45l93.65-54A1.8,1.8,0,0,1,733,856L885.73,876a1.28,1.28,0,0,1,.46,2.38Z"/><path class="cls-107" d="M791.31,930.68l-152.79-19a.78.78,0,0,1-.29-1.45l93.65-54a1.8,1.8,0,0,1,1.14-.23l152.71,19.95a1.27,1.27,0,0,1,.46,2.37Z"/><path class="cls-108" d="M791.31,930.59l-152.79-19a.78.78,0,0,1-.29-1.45l93.65-54a1.8,1.8,0,0,1,1.14-.23L885.73,875.8a1.27,1.27,0,0,1,.46,2.37Z"/><path class="cls-109" d="M791.31,930.5l-152.79-19a.78.78,0,0,1-.29-1.45l93.65-54a1.73,1.73,0,0,1,1.14-.22l152.71,19.94a1.28,1.28,0,0,1,.46,2.38Z"/><path class="cls-110" d="M791.31,930.41l-152.79-19a.77.77,0,0,1-.29-1.44l93.65-54a1.8,1.8,0,0,1,1.14-.23l152.71,19.94a1.28,1.28,0,0,1,.46,2.38Z"/><path class="cls-111" d="M791.31,930.33l-152.79-19a.78.78,0,0,1-.29-1.45l93.65-54a1.8,1.8,0,0,1,1.14-.23l152.71,19.95a1.27,1.27,0,0,1,.46,2.37Z"/><path class="cls-112" d="M791.31,930.24l-152.79-19a.78.78,0,0,1-.29-1.45l93.65-54a1.8,1.8,0,0,1,1.14-.23l152.71,20a1.27,1.27,0,0,1,.46,2.37Z"/><path class="cls-113" d="M791.31,930.15l-152.79-19a.78.78,0,0,1-.29-1.45l93.65-54a1.73,1.73,0,0,1,1.14-.22l152.71,19.94a1.27,1.27,0,0,1,.46,2.37Z"/><path class="cls-114" d="M791.31,930.06,638.52,911a.77.77,0,0,1-.29-1.44l93.65-54.05a1.87,1.87,0,0,1,1.14-.22l152.71,19.94a1.28,1.28,0,0,1,.46,2.38Z"/><path class="cls-115" d="M791.31,930,638.52,911a.78.78,0,0,1-.29-1.45l93.65-54a1.8,1.8,0,0,1,1.14-.23l152.71,20a1.27,1.27,0,0,1,.46,2.37Z"/><path class="cls-116" d="M791.31,929.89l-152.79-19a.78.78,0,0,1-.29-1.45l93.65-54a1.8,1.8,0,0,1,1.14-.23l152.71,20a1.27,1.27,0,0,1,.46,2.37Z"/><path class="cls-117" d="M791.31,929.8l-152.79-19a.78.78,0,0,1-.29-1.45l93.65-54a1.8,1.8,0,0,1,1.14-.23l152.71,20a1.27,1.27,0,0,1,.46,2.37Z"/><path class="cls-118" d="M791.31,929.71l-152.79-19a.78.78,0,0,1-.29-1.45l93.65-54A1.73,1.73,0,0,1,733,855l152.71,19.94a1.28,1.28,0,0,1,.46,2.38Z"/><path class="cls-119" d="M791.31,929.62l-152.79-19a.78.78,0,0,1-.29-1.45l93.65-54a1.8,1.8,0,0,1,1.14-.23l152.71,19.94a1.28,1.28,0,0,1,.46,2.38Z"/><path class="cls-120" d="M791.31,929.54l-152.79-19a.78.78,0,0,1-.29-1.45l93.65-54a1.8,1.8,0,0,1,1.14-.23l152.71,20a1.27,1.27,0,0,1,.46,2.37Z"/><path class="cls-121" d="M791.31,929.45l-152.79-19a.78.78,0,0,1-.29-1.45l93.65-54a1.8,1.8,0,0,1,1.14-.23l152.71,19.95a1.27,1.27,0,0,1,.46,2.37Z"/><path class="cls-122" d="M791.31,929.45l-152.79-19a.78.78,0,0,1-.29-1.45l93.65-54a1.8,1.8,0,0,1,1.14-.23l152.71,19.95a1.27,1.27,0,0,1,.46,2.37Z"/><ellipse class="cls-10" cx="761.82" cy="892.64" rx="12.64" ry="5.46"/><polygon class="cls-123" points="823.56 917.29 816.12 921.46 815.91 918.57 823.36 914.39 823.56 917.29"/><polygon class="cls-123" points="833.38 911.85 825.94 916.03 825.73 913.13 833.18 908.96 833.38 911.85"/><path class="cls-123" d="M701.34,918.25a1.3,1.3,0,0,0-.7,1c0,1.93,5.9,4.17,13.18,5s13.18-.07,13.18-2a1.45,1.45,0,0,0-.4-.9Z"/></g><g class="cls-124"><path class="cls-125" d="M403.5,819.51a71.79,71.79,0,0,0,36,24.84c27.78,8.19,50.76-4,55.26-6.48,26.5-9.29,54.35-16.88,60.68-40.85,1.77-5.57,3.27-13.81-.33-21.29-8.19-17-36.64-17.32-47.43-17.43C456.29,757.76,416,804,403.5,819.51Z"/><path class="cls-126" d="M555.47,791.87c-3.46,6.28-4.86,17.42-22.78,25.93-17.08,8.63-30.5,14-37.9,14.91-40.59,9.41-76.33,14-91.29-18.35-2.26.65-5.6,1.54-9.71,2.32-5.44,1-9.15,1.28-19.4,2-15.68,1.16-15.18,1.17-16.28,1.18a117,117,0,0,1-20.57-1.6c-19.64-3.35-25.29-10.14-29-7.29-5.28,4-.88,22.63,8.68,36.86,16.61,24.72,45.79,31.73,60.25,35,11,2.48,24.76,4.3,83.43-2.86,77.6-9.47,88.24-16.89,95.14-25.71,10.55-13.5,18.85-38.55,8.57-54A27.43,27.43,0,0,0,555.47,791.87Z"/><path class="cls-127" d="M403.5,814.36c15,32.34,50.7,27.76,91.29,18.35,26.5-9.28,54.35-16.87,60.69-40.84"/><path class="cls-128" d="M503.29,783.71l-23.58,10.43-17,4-23.66-.32a29.62,29.62,0,0,1-1.93,3.48,32.29,32.29,0,0,1-4.66,5.68,50.46,50.46,0,0,1-10.34,7.5c-9.35,5-21.35,10.91-50.41,14.09A329.51,329.51,0,0,1,317.86,830q-1.44-10.79-2.86-21.57a604.56,604.56,0,0,1,188.29-24.72Z"/><path class="cls-129" d="M557.57,798.64c-.85.2-1.57-6.21-7.21-13.35a39.23,39.23,0,0,0-11.07-9.5c-8.39-5-16.34-5.87-25.86-6.79-12.13-1.17-14.63.52-23.29-1.57-6.18-1.49-16-4.31-15.78-6.57.25-2.47,12.29-3.16,22.71-3.75a200.14,200.14,0,0,1,21.54,0c11.93.59,18,.95,22.5,3.64,6,3.6,9,8.86,11.14,12.75C558.93,785.46,558.76,798.36,557.57,798.64Z"/><path class="cls-130" d="M314.5,813.79l5.21.35c1.45.52,3.56,1.24,6.15,1.93,5.88,1.58,11,2.2,18.85,2.64,11.24.65,19.89.47,21.72.43,9.4-.21,15.71-.34,24.36-1.71,6.76-1.07,11.26-2.31,19.5-4.57,13-3.58,17.12-5.77,20.5-8.22,2.45-1.78,4.84-3.1,6.5-5.85A16.62,16.62,0,0,0,439.21,788l2.58,2.79,3.42,2c1.68.65,4.06,1.52,7,2.35a53.41,53.41,0,0,0,11.68,2.36c3.64.26,6.71.49,10.6-.64a23.41,23.41,0,0,0,9.43-5.36,24.47,24.47,0,0,0,6.43-10.39c.92-2.69,1.2-5.58,1.72-11.25.44-4.83.61-8.89.64-10.4,1.18-56.84-13.39-85.6-13.39-85.6-5.88-11.6-18.24-36-44.58-45a64.29,64.29,0,0,0-24-3.29l-2.39,1.82-39.86-1.68a103.42,103.42,0,0,0-25.89,11.43c-64.54,40-81,153.2-50.57,173.86C296.49,814.05,303.4,816,314.5,813.79Z"/><path class="cls-131" d="M345.93,783.29c-.06-.3-3,.58-8.43.21a34.43,34.43,0,0,1-10.43-2.14,26,26,0,0,1-8.64-5,25.32,25.32,0,0,1-6.22-8.79c-2.49-5.87-1.47-9.67-2.78-9.93-1.67-.32-5,5.51-5.36,11.57-.14,2.34-.72,4.51.57,6a4,4,0,0,0,1.72,1.15l1.93,1.71a22.41,22.41,0,0,0,5,4.57,24.7,24.7,0,0,0,10.07,3.72C335,788.25,346,783.87,345.93,783.29Z"/><path class="cls-132" d="M418.21,807.43s-1.48.35-14.85,2.64a296.89,296.89,0,0,1-35.15,3.36c-17.1.7-25.66,1-34.64-1.14-7.82-1.91-15.81-3.86-22.93-10.5-7.47-7-9.08-14.55-12-13.93-2.72.58-4.9,7.93-2.14,13.5,2.42,4.87,7.57,6.22,8.43,6.43a75,75,0,0,0,11.71,5.57,81.65,81.65,0,0,0,14.86,3.85,152.33,152.33,0,0,0,24.14,2.08,242.38,242.38,0,0,0,27.79-1.08c20.12-1.92,28-5.11,31.28-6.57,3.77-1.67,9.61-4.66,9.36-5.28C423.92,806,421.47,806.67,418.21,807.43Z"/><path class="cls-133" d="M433.71,753l-9.57-38.57-5.57,3c-2.06.71-4.94,1.65-8.43,2.57a152.61,152.61,0,0,1-50.71,3.43c-10.73-1.29-16.1-1.93-21.72-5-9.94-5.44-12.57-13-17.14-12-2.28.48-5.23,3.11-7.28,13.71l-2.15,20.57c1.4,1.4,3.38,3.3,5.86,5.43A102.12,102.12,0,0,0,332.14,757c9.18,5.21,18,6.58,28.57,8.14,8.59,1.27,19.34,2.85,33.29,1.15A106.39,106.39,0,0,0,433.71,753Z"/><path class="cls-134" d="M409.11,627a231.35,231.35,0,0,1-30-.43l.1-8,16.29.11q1.44-6.21,2.89-12.43a34,34,0,0,1-7.93-8.57c-2.48-3.88-2.65-6-2.67-6.86a9.58,9.58,0,0,1,1.92-6.21,9.38,9.38,0,0,1,4.18-3,10.36,10.36,0,0,1,5.79-.54c2.35.48,3.82,1.68,6.21,3.64a22.26,22.26,0,0,1,3.65,3.75,19.33,19.33,0,0,1,2,3.43l1.07-.43c.42-.87,1.08-2.18,1.93-3.75,1-1.84,1.31-2.23,1.72-3.1a17.64,17.64,0,0,0,1.28-5.68,47.41,47.41,0,0,0,.22-7.93l6.64.11a26.13,26.13,0,0,0,4.61-1.82,29.52,29.52,0,0,0,4.71-3.11c4.18-3.3,4.26-4.71,5.36-4.82,4-.42,13.66,17,10.71,35.35-.55,3.46-2.82,17.62-14.36,25.29C433.61,623.23,428.92,626,409.11,627Z"/><path class="cls-135" d="M408.56,627.06a231.42,231.42,0,0,1-30-.43l.11-8,16.29.11q1.44-6.21,2.89-12.43a33.79,33.79,0,0,1-7.93-8.57c-2.48-3.88-2.66-6-2.68-6.86a9.67,9.67,0,0,1,1.93-6.21,9.38,9.38,0,0,1,4.18-3,10.32,10.32,0,0,1,5.78-.54c2.36.48,3.82,1.68,6.22,3.64a22,22,0,0,1,3.64,3.75,20.11,20.11,0,0,1,2,3.43l1.07-.43c.42-.87,1.07-2.18,1.93-3.75,1-1.84,1.31-2.23,1.71-3.1A17.8,17.8,0,0,0,417,579a47.59,47.59,0,0,0,.21-7.93l6.64.11a26.13,26.13,0,0,0,4.61-1.82,29,29,0,0,0,4.72-3.11c4.18-3.3,4.26-4.71,5.35-4.82,4-.42,13.66,17,10.72,35.35-.56,3.46-2.83,17.62-14.36,25.29C433.07,623.25,428.37,626.05,408.56,627.06Z"/><path class="cls-136" d="M379.21,618.57l16.29.11q1.44-6.21,2.89-12.43a34,34,0,0,1-7.93-8.57c-2.48-3.88-2.65-6-2.67-6.86a9.58,9.58,0,0,1,1.92-6.21,9.38,9.38,0,0,1,4.18-3,10.36,10.36,0,0,1,5.79-.54c2.35.48,3.82,1.68,6.21,3.64a22.26,22.26,0,0,1,3.65,3.75,19.33,19.33,0,0,1,2,3.43l1.07-.43c.42-.87,1.08-2.18,1.93-3.75,1-1.84,1.31-2.23,1.72-3.1a17.64,17.64,0,0,0,1.28-5.68,47.41,47.41,0,0,0,.22-7.93l6.64.11a26.13,26.13,0,0,0,4.61-1.82,32.87,32.87,0,0,0,4.71-3.11c4.77-3.59,4.71-3.41,6-4.47,4.36-3.48,8.83-7.07,10.42-11.28,3.44-9.09-6.83-20.29-7.5-21-7.93-8.46-18.36-9.85-29.92-11.22-13.57-1.6-34.68-4.1-47.15,8.5-3.52,3.57-6,8.67-11.07,18.86-4.25,8.61-6.81,13.8-8.28,20.14-.73,3.12-6.45,29.51,10.21,44.22C363.91,616.47,372.93,618.22,379.21,618.57Z"/><path class="cls-137" d="M428.93,603.39c4,3,6.28,5.48,11.53,3.34.05,0,.11,0,.09.08-1.37,5.44-7.74,4.09-10.22.24a9.72,9.72,0,0,1-1.61-3.54.13.13,0,0,1,.21-.12Z"/><ellipse class="cls-138" cx="435.27" cy="582.91" rx="6.8" ry="11.3"/><line class="cls-138" x1="428.46" y1="582.91" x2="405.18" y2="582.91"/></g><path class="cls-139" d="M480.57,841.86,484.86,904c0,4.17,9.57,7.55,21.37,7.55s21.38-3.38,21.38-7.55l4.18-62.52Z"/><ellipse class="cls-140" cx="506.23" cy="842.45" rx="25.82" ry="7.55"/><polygon class="cls-141" points="503.29 845.14 502.86 824.21 515.71 812.86 519.86 817.29 508.86 826.8 509 845.14 503.29 845.14"/><path class="cls-142" d="M529.11,881.86c0,10.5-45.73,10.73-45.78.23l-.81-12c0,8.43,47.35,8.43,47.35,0Z"/><g id="Remote"><polygon class="cls-143" points="608.5 864.05 583.43 859.23 671.18 808.77 696.14 814.23 608.5 864.05"/><polygon class="cls-144" points="608.5 863.96 583.43 859.14 671.18 808.67 696.14 814.14 608.5 863.96"/><polygon class="cls-145" points="608.5 863.87 583.43 859.05 671.18 808.58 696.14 814.05 608.5 863.87"/><polygon class="cls-146" points="608.5 863.77 583.43 858.95 671.18 808.49 696.14 813.95 608.5 863.77"/><polygon class="cls-147" points="608.5 863.68 583.43 858.86 671.18 808.4 696.14 813.86 608.5 863.68"/><polygon class="cls-148" points="608.5 863.59 583.43 858.77 671.18 808.3 696.14 813.77 608.5 863.59"/><polygon class="cls-149" points="608.5 863.5 583.43 858.68 671.18 808.21 696.14 813.68 608.5 863.5"/><polygon class="cls-150" points="608.5 863.41 583.43 858.59 671.18 808.12 696.14 813.59 608.5 863.41"/><polygon class="cls-151" points="608.5 863.31 583.43 858.49 671.18 808.03 696.14 813.49 608.5 863.31"/><polygon class="cls-152" points="608.5 863.22 583.43 858.4 671.18 807.94 696.14 813.4 608.5 863.22"/><polygon class="cls-153" points="608.5 863.13 583.43 858.31 671.18 807.84 696.14 813.31 608.5 863.13"/><polygon class="cls-154" points="608.5 863.04 583.43 858.22 671.18 807.75 696.14 813.22 608.5 863.04"/><polygon class="cls-155" points="608.5 862.95 583.43 858.12 671.18 807.66 696.14 813.12 608.5 862.95"/><polygon class="cls-156" points="608.5 862.85 583.43 858.03 671.18 807.57 696.14 813.03 608.5 862.85"/><polygon class="cls-157" points="608.5 862.76 583.43 857.94 671.18 807.48 696.14 812.94 608.5 862.76"/><polygon class="cls-158" points="608.5 862.67 583.43 857.85 671.18 807.38 696.14 812.85 608.5 862.67"/><polygon class="cls-159" points="608.5 862.58 583.43 857.75 671.18 807.29 696.14 812.75 608.5 862.58"/><polygon class="cls-160" points="608.5 862.48 583.43 857.66 671.18 807.2 696.14 812.66 608.5 862.48"/><polygon class="cls-161" points="608.5 862.39 583.43 857.57 671.18 807.11 696.14 812.57 608.5 862.39"/><polygon class="cls-162" points="608.5 862.3 583.43 857.48 671.18 807.01 696.14 812.48 608.5 862.3"/><polygon class="cls-163" points="608.5 862.21 583.43 857.39 671.18 806.92 696.14 812.39 608.5 862.21"/><polygon class="cls-164" points="608.5 862.12 583.43 857.29 671.18 806.83 696.14 812.29 608.5 862.12"/><polygon class="cls-165" points="608.5 862.02 583.43 857.2 671.18 806.74 696.14 812.2 608.5 862.02"/><polygon class="cls-166" points="608.5 861.93 583.43 857.11 671.18 806.64 696.14 812.11 608.5 861.93"/><polygon class="cls-167" points="608.5 861.84 583.43 857.02 671.18 806.55 696.14 812.02 608.5 861.84"/><polygon class="cls-168" points="608.5 861.75 583.43 856.92 671.18 806.46 696.14 811.92 608.5 861.75"/><polygon class="cls-169" points="608.5 861.65 583.43 856.83 671.18 806.37 696.14 811.83 608.5 861.65"/><polygon class="cls-170" points="608.5 861.56 583.43 856.74 671.18 806.28 696.14 811.74 608.5 861.56"/><polygon class="cls-171" points="608.5 861.47 583.43 856.65 671.18 806.18 696.14 811.65 608.5 861.47"/><polygon class="cls-172" points="608.5 861.38 583.43 856.56 671.18 806.09 696.14 811.56 608.5 861.38"/><polygon class="cls-173" points="608.5 861.29 583.43 856.46 671.18 806 696.14 811.46 608.5 861.29"/><polygon class="cls-174" points="608.5 861.19 583.43 856.37 671.18 805.91 696.14 811.37 608.5 861.19"/><polygon class="cls-175" points="608.5 861.1 583.43 856.28 671.18 805.82 696.14 811.28 608.5 861.1"/><polygon class="cls-176" points="608.5 861.01 583.43 856.19 671.18 805.72 696.14 811.19 608.5 861.01"/><polygon class="cls-177" points="608.5 860.92 583.43 856.1 671.18 805.63 696.14 811.1 608.5 860.92"/><polygon class="cls-178" points="608.5 860.83 583.43 856 671.18 805.54 696.14 811 608.5 860.83"/><polygon class="cls-179" points="608.5 860.73 583.43 855.91 671.18 805.45 696.14 810.91 608.5 860.73"/><polygon class="cls-180" points="608.5 860.64 583.43 855.82 671.18 805.35 696.14 810.82 608.5 860.64"/><polygon class="cls-181" points="608.5 860.55 583.43 855.73 671.18 805.26 696.14 810.73 608.5 860.55"/><polygon class="cls-182" points="608.5 860.46 583.43 855.63 671.18 805.17 696.14 810.63 608.5 860.46"/><polygon class="cls-183" points="608.5 860.36 583.43 855.54 671.18 805.08 696.14 810.54 608.5 860.36"/><polygon class="cls-184" points="608.5 860.27 583.43 855.45 671.18 804.99 696.14 810.45 608.5 860.27"/><polygon class="cls-185" points="608.5 860.18 583.43 855.36 671.18 804.89 696.14 810.36 608.5 860.18"/><polygon class="cls-186" points="608.5 860.09 583.43 855.26 671.18 804.8 696.14 810.26 608.5 860.09"/><polygon class="cls-187" points="608.5 860 583.43 855.17 671.18 804.71 696.14 810.17 608.5 860"/><polygon class="cls-188" points="608.5 859.9 583.43 855.08 671.18 804.62 696.14 810.08 608.5 859.9"/><polygon class="cls-189" points="608.5 859.81 583.43 854.99 671.18 804.52 696.14 809.99 608.5 859.81"/><polygon class="cls-190" points="608.5 859.72 583.43 854.9 671.18 804.43 696.14 809.9 608.5 859.72"/><polygon class="cls-191" points="608.5 859.63 583.43 854.8 671.18 804.34 696.14 809.8 608.5 859.63"/><polygon class="cls-192" points="608.5 859.53 583.43 854.71 671.18 804.25 696.14 809.71 608.5 859.53"/><polygon class="cls-193" points="608.5 859.44 583.43 854.62 671.18 804.16 696.14 809.62 608.5 859.44"/><polygon class="cls-194" points="608.5 859.35 583.43 854.53 671.18 804.06 696.14 809.53 608.5 859.35"/><polygon class="cls-195" points="608.5 859.26 583.43 854.44 671.18 803.97 696.14 809.44 608.5 859.26"/><polygon class="cls-196" points="608.5 859.16 583.43 854.34 671.18 803.88 696.14 809.34 608.5 859.16"/><polygon class="cls-197" points="608.5 859.07 583.43 854.25 671.18 803.79 696.14 809.25 608.5 859.07"/><polygon class="cls-198" points="608.5 858.98 583.43 854.16 671.18 803.7 696.14 809.16 608.5 858.98"/><polygon class="cls-199" points="608.5 858.89 583.43 854.07 671.18 803.6 696.14 809.07 608.5 858.89"/><polygon class="cls-200" points="608.5 858.8 583.43 853.98 671.18 803.51 696.14 808.98 608.5 858.8"/><polygon class="cls-201" points="608.5 858.7 583.43 853.88 671.18 803.42 696.14 808.88 608.5 858.7"/><polygon class="cls-202" points="608.5 858.61 583.43 853.79 671.18 803.33 696.14 808.79 608.5 858.61"/><polygon class="cls-203" points="608.5 858.52 583.43 853.7 671.18 803.23 696.14 808.7 608.5 858.52"/><polygon class="cls-204" points="608.5 858.43 583.43 853.61 671.18 803.14 696.14 808.61 608.5 858.43"/><polygon class="cls-205" points="608.5 858.34 583.43 853.51 671.18 803.05 696.14 808.51 608.5 858.34"/><polygon class="cls-206" points="608.5 858.24 583.43 853.42 671.18 802.96 696.14 808.42 608.5 858.24"/><polygon class="cls-207" points="608.5 858.15 583.43 853.33 671.18 802.87 696.14 808.33 608.5 858.15"/><polygon class="cls-208" points="608.5 858.06 583.43 853.24 671.18 802.77 696.14 808.24 608.5 858.06"/><polygon class="cls-209" points="608.5 857.97 583.43 853.14 671.18 802.68 696.14 808.14 608.5 857.97"/><polygon class="cls-210" points="608.5 857.87 583.43 853.05 671.18 802.59 696.14 808.05 608.5 857.87"/><polygon class="cls-211" points="608.5 857.78 583.43 852.96 671.18 802.5 696.14 807.96 608.5 857.78"/><polygon class="cls-212" points="608.5 857.69 583.43 852.87 671.18 802.4 696.14 807.87 608.5 857.69"/><polygon class="cls-213" points="608.5 857.6 583.43 852.78 671.18 802.31 696.14 807.78 608.5 857.6"/><polygon class="cls-214" points="608.5 857.5 583.43 852.68 671.18 802.22 696.14 807.68 608.5 857.5"/><polygon class="cls-215" points="608.5 857.41 583.43 852.59 671.18 802.13 696.14 807.59 608.5 857.41"/><polygon class="cls-216" points="608.5 857.32 583.43 852.5 671.18 802.03 696.14 807.5 608.5 857.32"/><polygon class="cls-217" points="608.5 857.23 583.43 852.41 671.18 801.94 696.14 807.41 608.5 857.23"/><polygon class="cls-218" points="608.5 857.14 583.43 852.32 671.18 801.85 696.14 807.32 608.5 857.14"/><polygon class="cls-219" points="608.5 857.04 583.43 852.22 671.18 801.76 696.14 807.22 608.5 857.04"/><polygon class="cls-220" points="608.5 856.95 583.43 852.13 671.18 801.67 696.14 807.13 608.5 856.95"/><polygon class="cls-221" points="608.5 856.86 583.43 852.04 671.18 801.57 696.14 807.04 608.5 856.86"/><polygon class="cls-222" points="608.5 856.77 583.43 851.95 671.18 801.48 696.14 806.95 608.5 856.77"/><polygon class="cls-223" points="608.5 856.67 583.43 851.85 671.18 801.39 696.14 806.85 608.5 856.67"/><polygon class="cls-224" points="608.5 856.58 583.43 851.76 671.18 801.3 696.14 806.76 608.5 856.58"/><polygon class="cls-225" points="608.5 856.49 583.43 851.67 671.18 801.21 696.14 806.67 608.5 856.49"/><polygon class="cls-226" points="608.5 856.4 583.43 851.58 671.18 801.11 696.14 806.58 608.5 856.4"/><polygon class="cls-227" points="608.5 856.31 583.43 851.49 671.18 801.02 696.14 806.49 608.5 856.31"/><polygon class="cls-228" points="608.5 856.21 583.43 851.39 671.18 800.93 696.14 806.39 608.5 856.21"/><polygon class="cls-140" points="608.5 856.21 583.43 851.39 671.18 800.93 696.14 806.39 608.5 856.21"/><ellipse class="cls-229" cx="635.39" cy="831.02" rx="10.04" ry="4.64"/><polygon class="cls-229" points="615.7 849.86 596.39 846.14 599.39 844.42 618.96 847.97 615.7 849.86"/><polygon class="cls-229" points="623.22 845.58 603.85 841.85 606.87 840.13 626.53 843.7 623.22 845.58"/><polygon class="cls-229" points="629.7 841.89 610.39 838.13 613.36 836.39 632.99 840.02 629.7 841.89"/><polygon class="cls-229" points="656.99 826.38 637.74 822.38 640.74 820.66 660.3 824.51 656.99 826.38"/><polygon class="cls-229" points="665.26 821.68 645.99 817.62 648.98 815.9 668.61 819.77 665.26 821.68"/><polygon class="cls-229" points="670.29 818.84 650.95 814.77 653.95 813.05 673.65 816.92 670.29 818.84"/><polygon class="cls-229" points="675.07 816.08 655.7 812.03 658.69 810.32 678.4 814.21 675.07 816.08"/><polygon class="cls-229" points="679.87 813.37 661.1 808.93 663.96 807.29 683.18 811.49 679.87 813.37"/><ellipse class="cls-230" cx="672.99" cy="804.23" rx="3.07" ry="1.52"/><ellipse class="cls-231" cx="685.47" cy="807.29" rx="3.07" ry="1.52"/></g><g id="Text"><text class="cls-232" transform="translate(391.72 374.71)">NEWS</text><text class="cls-233" transform="translate(530.6 74.61)">MOVIES</text><text class="cls-233" transform="translate(848.04 165.54)">IPTV</text><text class="cls-233" transform="translate(1246.29 99.68)">SPORTS</text></g></g></g></svg>